<svg id="Layer_2" data-name="Layer 2" xmlns="http://www.w3.org/2000/svg" viewBox="0 0 3607.15 2152.85"><defs><style>.cls-1{fill:#ff1737;}</style></defs><title>portfoliodoodle</title><path class="cls-1" d="M1165.48,773.43c1.88-7,13.85-7.77,19.47-6,9.47,3,9,12.44,8.86,20.42a1.48,1.48,0,0,0,2.9.39c2.19-9.52-1-21.3-11.45-24-7-1.77-20.55-.4-22.17,8.5-.28,1.54,2,2.22,2.39.66Z"/><path class="cls-1" d="M1164,771.51c-8.51,13-13.47,26.68-12.86,42.32a69.57,69.57,0,0,1-12.25,43.23c-1.11,1.62,1.54,3.16,2.63,1.54a70.33,70.33,0,0,0,12.53-38.35c.18-8.14-.75-15.89,1.32-23.92,2.18-8.47,6.24-16.16,10.41-23.78a1,1,0,0,0-1.78-1Z"/><path class="cls-1" d="M1190.51,796.67a50.49,50.49,0,0,1-8.92,17c-3.72,4.68-8.19,8.73-11.85,13.45-7,9.06-11.15,21.46-12.5,32.76-.2,1.66,2.5,2,2.9.39,3.34-13.43,6.24-25.44,15.79-36,7.44-8.23,13.7-16.1,16.62-27a1.06,1.06,0,0,0-2-.56Z"/><path class="cls-1" d="M1135.51,864.21c-2.19,21.87-14.66,39.66-24,58.86a1.38,1.38,0,0,0,2.38,1.39c6.14-9.43,11.16-20.09,15.56-30.43,4.06-9.53,7.3-19.45,8.21-29.82.12-1.39-2-1.36-2.16,0Z"/><path class="cls-1" d="M1162.61,849.13a1.1,1.1,0,0,0,0-2.2,1.1,1.1,0,0,0,0,2.2Z"/><path class="cls-1" d="M1154.9,859.44c-3.26,12.31-8.22,24.1-13.73,35.56-5.13,10.66-12,20.87-16.42,31.79-.7,1.74,1.85,2.43,2.79,1.18,3.62-4.82,6.2-10.65,9-16,3-5.83,5.85-11.73,8.5-17.72A200.71,200.71,0,0,0,1157.07,860a1.13,1.13,0,0,0-2.17-.59Z"/><path class="cls-1" d="M1144.56,848c-4,14.4-13.8,26.46-16.66,41.24-.34,1.76,2.32,2.52,2.71.74,3.26-14.62,12.39-26.94,16.08-41.4a1.1,1.1,0,0,0-2.13-.58Z"/><path class="cls-1" d="M1108.38,921.51c-5.62-3-12-5.62-18.47-4-6.18,1.57-10.5,6.75-14,11.79-4.35,6.33-9,13.63-10.26,21.35-1.22,7.42,1.09,14.77,3.34,21.76,2.51,7.78,3.83,15.76-2.71,21.85-5.46,5.09-12.93,7.16-18.76,11.69-11.38,8.84-19.18,26.22-17.41,40.66,1.91,15.62,17.32,32.57,32.91,35.29,2.48.43,3.54-3.36,1-3.8-13.88-2.42-27.76-17.27-30.07-31.09-2.43-14.48,6.55-33.1,19.11-40.44,8.72-5.09,20.21-9.44,21.47-21,.8-7.28-2.54-14.07-4.39-20.92-1.92-7.11-2.12-13.67.87-20.51,3.27-7.49,8.29-16.9,15.17-21.67,6.62-4.58,14.49-1.77,21.3.88,1.12.44,1.85-1.37.81-1.92Z"/><path class="cls-1" d="M1127.89,932.29c11.67,2.51,12.09,17.17,10.59,26.68-.78,5-2.2,10-5.22,14.08-4.35,5.88-10.7,10.12-13.83,16.91-3.25,7-1.77,14.06-.86,21.4a61.08,61.08,0,0,1-1.92,23,55.05,55.05,0,0,1-21.12,31.11c-12,8.49-26.7,11.6-41.2,11.26-3-.07-3,4.58,0,4.6,27.72.12,54-12.9,64.1-39.91a72.41,72.41,0,0,0,4.33-21.94c.47-9.94-4.42-20.42.83-29.72,3.87-6.88,11.12-11.16,14.64-18.29a43.16,43.16,0,0,0,3.87-15.14c.94-10.24-1.28-25.17-13.89-26.37-1.34-.13-1.63,2.06-.32,2.35Z"/><path class="cls-1" d="M1056.43,1042.23a22.24,22.24,0,0,0-1.88,3.5,1.76,1.76,0,0,0,.82,2c9.52,4,19.59,6.06,29.06,10.36,1.12.51,2.58-.95,1.44-1.88-8.12-6.62-19.62-8-29.14-11.71l1.23,2.18c.42-1.08,1-2.11,1.42-3.19.7-1.78-2-2.72-3-1.25Z"/><path class="cls-1" d="M1091.19,1052.65c0,.18,0-.26,0-.38a3.27,3.27,0,0,1,.1-.45,2.73,2.73,0,0,0,.17-1.49,1.54,1.54,0,0,0-1.89-1.07,2.4,2.4,0,0,0-1.26,1.23c-.49.79-1,1.6-1.43,2.4-.26.42-.49.85-.72,1.3l-.21.41c-.12.26-.34.35.08,0l1.2-.49h0l1.63,1.24c-.06.83,0,1.07,0,.75.55-2.13-2.54-2.92-3.26-.9a2,2,0,0,0,0,1,1.71,1.71,0,0,0,1.64,1.25c1.38-.06,2.07-1.66,2.58-2.75l.86-1.89c.16-.33.31-.67.46-1s-.17.46,0-.1a3.42,3.42,0,0,0,.13-.34c-.09.16-.1.2,0,.1l-.53.54,0,0h-1.48l-.53-.53c-.21-.38-.07-.15,0,.1s.09.32.12.48a4.2,4.2,0,0,0,.37,1.43,1.06,1.06,0,0,0,1.93-.81Z"/><path class="cls-1" d="M1090,1048.82c-4.24-3.67-9.78-5.64-15.25-7.3-4.69-1.43-11.79-3.71-16.32-.72-2.21,1.46-.13,5,2.08,3.57,3.9-2.61,11.51.45,15.47,1.76,4.34,1.43,8.71,3.16,13,4.53a1.11,1.11,0,0,0,1.07-1.84Z"/><path class="cls-1" d="M1154.17,796.7a14.51,14.51,0,0,0-3.08-1.9,1.52,1.52,0,0,0-1.52,2.62c.45.28.92.55,1.39.8a1.55,1.55,0,0,0,1.57-2.68,5.11,5.11,0,0,0-4.65-.71c-1.59.57-1.49,3.23.42,3.13,1.06-.05,1.73-.36,2.66.26l1.57-2.68c-.49-.23-1-.48-1.44-.74l-1.52,2.62a12.48,12.48,0,0,1,2.58,1.3c1.37,1.2,3.36-.72,2-2Z"/><path class="cls-1" d="M1156,785.27a28.93,28.93,0,0,0,4.09,2.48c1.42.61,3.21-.7,2.27-2.26a22,22,0,0,0-3.57-4.3c-1.18-1.12-2.46-2.48-4.15-2.61a1.69,1.69,0,0,0-1.46,2.53,12.84,12.84,0,0,0,3,2.95,35.4,35.4,0,0,1,3.6,3.44l1.61-2.77a29.77,29.77,0,0,1-4.42-1.73c-1.34-.56-2.09,1.55-1,2.27Z"/><path class="cls-1" d="M1160.47,769.87c1.47,1,3,1.87,4.42,3l1.72-3a24.56,24.56,0,0,0-5.68-.23,2.87,2.87,0,0,0-1.29.33,1.9,1.9,0,0,0-.36,3c.91.91,3.21,1.06,4,.06a1.67,1.67,0,0,0,.25-1.93,2.37,2.37,0,0,0-2-1.15c-.21,0-.24,0-.08,0s.14,0,0,0l-.18,0c-.33-.1-.11,0,.67.41l.48,1.81h0l-.47.82c.09-.07-1,.61-.64.42.09-.05-.5,0-.18,0a5.3,5.3,0,0,0,.57,0c.54,0,1.07,0,1.6-.05a23.26,23.26,0,0,1,2.89.09,1.75,1.75,0,0,0,1.7-1.3,1.84,1.84,0,0,0-.81-2,24,24,0,0,0-5-2.85,1.52,1.52,0,0,0-1.53,2.63Z"/><path class="cls-1" d="M1198.21,786.44c.9,2.07,1.4,4.43,2.56,6.37l2.48-2.48c-1.31-.73-1.84-2-2.74-3.18a2,2,0,0,0-2.85,0,2.07,2.07,0,0,0,0,2.86c1.12,1.43,2,2.7,3.76,3.45a1.89,1.89,0,0,0,2.19-.29,1.8,1.8,0,0,0,.28-2.19,24.34,24.34,0,0,1-2-2.78c-.56-1-1.1-2-1.71-2.94a1.17,1.17,0,0,0-2,1.18Z"/><path class="cls-1" d="M1190.92,799.25a6.42,6.42,0,0,0,1,1.29l.13.14c.13.13.09.08-.09-.15a4.53,4.53,0,0,0,.43.58,5.28,5.28,0,0,0,.8.61c.31.22-.35-.31-.14-.11a1.07,1.07,0,0,0,.16.14l.06.07a1.59,1.59,0,0,1-.43-.74,1.79,1.79,0,0,1,1.44-2.27c.44-.06.13,0,0,0s-.23,0-.34,0-.14,0,.19,0l-.26,0-.61-.11v3.88l1-.41.24-.09c.3-.12-.39.05-.4.05l-1.46-.61h0l-.61-1.46c0-.12.24-1.22.56-1.38l-.06.06c-.05,0-.09.1-.14.14a3.85,3.85,0,0,0-.58.7,2.05,2.05,0,0,0,.58,2.92,1.9,1.9,0,0,0,2.06-.14,1.87,1.87,0,0,0,.66-1.95c.16.52-.13,1.75-.77,1.95a.64.64,0,0,0,.14-.08l.32-.19a3.24,3.24,0,0,0,1.07-1,2.1,2.1,0,0,0-2.41-3,14,14,0,0,0-1.81.82,2,2,0,0,0-.92,2.27,2.12,2.12,0,0,0,1.94,1.48,6.3,6.3,0,0,0,2.37,0,2.09,2.09,0,0,0,1.53-2,2.19,2.19,0,0,0-.67-1.56,4.31,4.31,0,0,0-1.9-1.13c-.61-.12-1.19-.37-1.8-.52a1.26,1.26,0,0,0-1.4,1.83Z"/><path class="cls-1" d="M1186.14,816.38s.61.35.24,0a6.82,6.82,0,0,1,.49.58,12.56,12.56,0,0,0,1,1,3.76,3.76,0,0,0,3.8.64,2,2,0,0,0,.88-3.32,7.66,7.66,0,0,0-6.82-2.33c-1.32.14-2.57,1.95-1.25,3a5.61,5.61,0,0,0,3.32,1.26,2.81,2.81,0,0,1,1.94.88l.88-3.32a3.44,3.44,0,0,1-1.22.24l.94.25a13.74,13.74,0,0,0-3.23-1.12c-1.27-.29-2.25,1.61-.93,2.23Z"/><path class="cls-1" d="M1098.37,977.43c-15.22-1.38-26.45,21.24-12.2,30.27a16.17,16.17,0,0,0,23.38-7.43c4.8-11.52-4.58-17.75-13.39-22.39-2.54-1.34-4.79,2.52-2.25,3.84,6.5,3.39,14.86,7.13,11.93,16.17-2.56,7.88-13.31,10.89-19.22,4.85-8.38-8.57,1.53-22.47,11.75-22.41,1.9,0,1.83-2.74,0-2.9Z"/><path class="cls-1" d="M1576.7,759.12a26.91,26.91,0,0,1-4.8-3.69,1.34,1.34,0,0,0-1.89,0c-6.59,8.49-8.87,20.34-10.54,30.69-1.82,11.33-2.81,23.11-.69,34.46,1.32,7.09,4.2,15.6,12.65,15.94s18.18-4.64,26-7.47a1.67,1.67,0,0,0-.88-3.21c-7.79,1.65-15.12,6.07-23.06,6.95-9.32,1-11.07-9.89-12-17-1.35-10.16-.32-20.81,1.35-30.87,1.57-9.45,3.71-19.87,9.27-27.87l-2.1.27a30.94,30.94,0,0,0,5.51,3.82c1.31.77,2.43-1.2,1.18-2Z"/><path class="cls-1" d="M1548.26,798.47a114.29,114.29,0,0,1,39.06,4.89c1.89.56,2.56-2.21.8-2.89-12.26-4.76-26.89-5.61-39.86-4.39-1.51.14-1.55,2.48,0,2.39Z"/><path class="cls-1" d="M1608,775.09c15.45,11.59,29.11,25.93,46.24,35.14a1.57,1.57,0,0,0,1.58-2.71c-16.55-10.17-30.84-23.24-46.61-34.49-1.26-.9-2.42,1.16-1.21,2.06Z"/><path class="cls-1" d="M1642.59,770.91a164.36,164.36,0,0,0-21.53,26.93c-4.81,7.32-12.48,18-11.75,27.29.13,1.67,2.9,2.35,3.18.43,1.4-9.73,6.44-18.53,11.61-26.73a160.58,160.58,0,0,1,20.15-26.26,1.17,1.17,0,0,0-1.66-1.66Z"/><path class="cls-1" d="M1570.9,758.79c8.5,4.12,19.61-1.24,28.42-1.82a1.48,1.48,0,0,0,0-3c-9.29-.42-18.32,4.72-27.55,2.71-1.18-.26-2.07,1.47-.87,2.06Z"/><path class="cls-1" d="M1680.56,747.38c5,.13,12.85.61,15.75,5.64,1.83,3.18.53,7-1.75,9.61s-6,4.21-9.46,3.16c-5.88-1.76-8.55-9-10.09-14.27l-3.16.87c6.6,22.26,4.07,45.37,2.17,68.09-.21,2.47,3.51,2.38,3.8,0,2.72-22.83,3.43-46.63-2.81-69a1.64,1.64,0,0,0-3.16.87c1.86,6.63,5.21,14.86,12.62,16.79,4.78,1.26,9.73-.92,12.82-4.6,2.9-3.47,4.18-8.47,1.9-12.61-3.49-6.32-12.28-7-18.63-6.93a1.17,1.17,0,0,0,0,2.34Z"/><path class="cls-1" d="M1726.66,731.14c18.78,5.19,12,34.87-4.29,38.79-2.21.53-1.47,3.45.5,3.68,16.21,1.84,31.73,6.43,47.76,9.07a1.71,1.71,0,0,0,.91-3.3c-15.37-5.33-32.54-7.87-48.67-9.52l.49,3.68c19.16-4.84,26.36-39.43,3.94-44.75a1.22,1.22,0,0,0-.64,2.35Z"/><path class="cls-1" d="M1723.42,736.93c-.51,12.76,1,25.49,2.32,38.17a312.59,312.59,0,0,1,1.62,33.78c0,2.16,3.31,2.69,3.82.52,2.46-10.5-.39-23-1.71-33.53-1.63-12.91-3.62-25.9-3.57-38.94a1.24,1.24,0,0,0-2.48,0Z"/><path class="cls-1" d="M1795.32,736.32c-2.21-3.81-7.83-13-13.31-8.33-4.46,3.85-4.22,13-4.35,18.26-.17,7.51.88,14.77,1.53,22.21s.42,17,4.61,23.66c5.35,8.5,15.77,2.55,21.1-2.81,1.46-1.46-.46-4.16-2.27-2.94-3.18,2.15-8.51,7.37-12.87,5.82-3.2-1.14-4.17-5.67-4.82-8.57-1.71-7.63-1.93-15.67-2.9-23.43a87.65,87.65,0,0,1-.24-21.35c.25-2.07.58-7.14,2.66-8.39,3-1.8,7.54,5.38,8.8,7.08.89,1.2,2.86.16,2.06-1.21Z"/><path class="cls-1" d="M1780.36,761.54c8.68.28,17.76-1.83,26-4.49a1.62,1.62,0,0,0-.86-3.12c-8.44,1.44-16.6,3.68-25.11,4.8a1.41,1.41,0,0,0,0,2.81Z"/><path class="cls-1" d="M1854.32,719.53c-9.76,2.8-19.68,6.18-27.11,13.4a2.09,2.09,0,0,0-.32,2.49c6.42,9.44,18.39,13.7,24.88,23.18,3.76,5.48,1.81,12.24-4.86,14.32-5.82,1.82-12.24-.82-16.54-4.76-1.44-1.32-3.93.38-2.8,2.16,7,11.14,29.26,10.19,30.74-4.91.65-6.68-4.91-12.25-9.48-16.31-5.89-5.24-13.6-9.41-18.4-15.75l-.32,2.48c6.78-7.28,15.92-10.25,24.85-14,1.37-.57.89-2.74-.64-2.3Z"/><path class="cls-1" d="M1917.31,707.78c-10.42,0-20,3.54-28.69,9.05a2.32,2.32,0,0,0-.81,3.08c3.73,8,15.66,16.12,11.44,25.79-4.74,10.85-19.27,11.73-27,3.74-1.81-1.88-4.39.87-2.81,2.82,8.12,10,24,10.13,31.8-.37,3.68-4.93,5.06-10.93,2.48-16.67-2.92-6.5-8.73-11.27-12.06-17.58l-.8,3.08c7.9-5.72,16.55-9.76,26.41-10.36a1.29,1.29,0,0,0,0-2.58Z"/><path class="cls-1" d="M2119.87,1398.52c19.5-16.18,33.88-40,57.58-50.62,25.82-11.61,56.3-3.7,79.81,9.81,12,6.91,22.24,15.72,27.77,28.63.81,1.9,3.63.5,3.21-1.35-2.54-11.28-13.12-20.28-22.17-26.53a119.73,119.73,0,0,0-39.81-17.46c-13.51-3.24-27.53-3.94-41-.11-12.93,3.68-23.91,11.58-33.35,20.94-11.52,11.43-21.38,24.39-33.67,35.07-1.12,1,.5,2.55,1.63,1.62Z"/><path class="cls-1" d="M2148.55,1368.22c-14.69-14.46-23-34.88-33.4-52.35-4.67-7.82-9.72-15.74-16.28-22.14-2.79-2.71-13.58-12.64-16.79-5.9a1.9,1.9,0,0,0,.67,2.55,6.24,6.24,0,0,0,3.64.34,2,2,0,0,0,1.8-1.37c2.22-6.31-1.68-9.65-4.42-15.06-.89-1.75-3.64-.52-3.13,1.32,1.31,4.77,5.72,7.57,3.94,12.74l1.81-1.37a13,13,0,0,0-1.76.18l.67,2.55c1.47-3.13,15.67,11.58,16.85,13.06,5.76,7.24,10.44,15.31,15,23.32,8.67,15.15,16.61,31.86,29.58,43.92,1.19,1.1,2.95-.64,1.79-1.79Z"/><path class="cls-1" d="M2271.3,1337.07c6.4-13.33,12.8-26.66,19.1-40q4.51-9.55,9-19.11,2.45-5.14,4.91-10.29c1.29-2.69,2.34-6.13,4.12-8.53a1.82,1.82,0,0,0-1.08-2.66c-2.72-.74-6.5.3-9.23.58-2.15.22-6.59-.19-8.4,1.16a2,2,0,0,0-.88,2.17c.45,2.16,4.24,9.14,7.18,8.05l-2.47-2.47c-1,6.77,7.41,1.12,9.38-.45,1.73-1.39,4.41-3.24,5.3-5.38.76-1.82-.11-3.95-2.38-3.7-2.61.3-2.75,4.12,0,4.19a2.36,2.36,0,0,0,2.29-1.14,2.07,2.07,0,0,0,0-2.11c-1.95-2.68-7.73-3.75-10.77-4.06-3.82-.4-7.24,1.74-4.48,5.71v-2.17c-3.54,6.72,6.87,4.08,9.58,3,1.88-.73,5.2-1.62,6.46-3.34s.31-4.09-2.07-4c-2.85.1-2.86,4.38,0,4.43,2,0,3.4-1.7,2.43-3.63-.88-1.76-4-2.82-5.59-3.57s-12.46-4.91-9.91,1.23a2.32,2.32,0,0,0,2.79,1.58c1.79-.45,21.67-2.72,15.93-7.61-2.71-2.3-11.91.7-14.55,2.25-2,1.15-2.66,2.66-1.33,4.65.37.55,1,.38,1.4.8.24.25,1.09,1.81,1.29,2a21,21,0,0,0,5.6,4.73c10.45,5.79,20.63-2.74,26.95-10.57a2.4,2.4,0,0,0-1-4c-14.9-3.87-29.21-.09-38.08,12.95a2.39,2.39,0,0,0,.85,3.25c4.17,2,9.26,5.84,14.11,6s9.17-3.77,12.88-6.11a2.41,2.41,0,0,0,.48-3.74c-13.15-12.08-30.4-16.92-47-8.93a2.41,2.41,0,0,0-.86,3.26c4.72,7.6,11.89,14.73,21.42,14.82s16.72-7.07,21.3-14.79a2.45,2.45,0,0,0-.38-2.89c-2-2.38-4.81-5.25-8.28-4.22-2.24.66-3.13,4.07-4.89,4.51a1.75,1.75,0,0,0,.46,3.41,5.17,5.17,0,0,0,3.33-1.53c.49-.39,1.11-1.36,1.7-1.55,1.87-.61,3.14,1.41,4.3,2.76l-.37-2.9c-3.7,6.24-9.3,12.51-17.17,12.43s-13.5-6.34-17.3-12.45l-.85,3.26c14.56-7,29.76-2.35,41.21,8.18l.48-3.74c-2.77,1.76-6.95,5.59-10.47,5.46-3.75-.14-8.46-3.76-11.71-5.33l.85,3.26c7.65-11.24,20-14.08,32.72-10.78l-1-4c-3.64,4.51-8.16,9.61-14.12,10.87a10.31,10.31,0,0,1-7.08-1,16,16,0,0,1-3.65-2.89c-.95-1-1.69-2.76-2.71-3.42-.19-.12-.93-1.09-1.23-.84l.25,3.29a3.38,3.38,0,0,1,.58-.27c.75.17,2.75-.86,3.54-1.06,1.22-.31,2.46-.6,3.69-.82,1-.17,2.88,0,2.14-.53l-1.16-2q1.54-2.25-.33-1.34c-.72.18-1.44.35-2.17.5-1.24.28-2.49.52-3.74.76-2.38.47-4.79.87-7.15,1.49l2.57,1c.44,1.06-1.84,1.79-1.07,2.75.18.22.93.18,1.18.33a30.08,30.08,0,0,0,3.39,1.31c.9.4,3.88,1.62,4.09,2.09v-2.24l1.33-1v4.43l-1-.54-.57-2.16c.5-1.25-.07-.29-.91,0-1.16.4-2.28,1.08-3.43,1.53a27.91,27.91,0,0,1-3.23,1.1,5.34,5.34,0,0,0-1.28.32,2.64,2.64,0,0,1-.74.1c-.88,0-.58.53.92,1.7a2.16,2.16,0,0,0,0-2.17c-.71-1-1.23.4-.91.6s.83-.07,1.13.06a30.75,30.75,0,0,0,3.56.78c1,.28,2,.66,3,1,.76.24,2,1.33,1.13.22v-2.11l1.33-.94v4.19c-.79.09-.63-2.18-1.63-2-.29.06-.78.93-1.06,1.14-.9.64-1.67,1.58-2.52,2.29a29.56,29.56,0,0,1-2.68,2c-.33.22-1.21.54-1.38.85a3.17,3.17,0,0,1-.45.23c-.78.29-.32.72,1.37,1.29a2,2,0,0,0-2.55-1.94c1.25.33,1.47.18.69-.45-.46-.55-.89-1.11-1.29-1.69a27,27,0,0,0-1.74-2.78q-2.28,2.22-1,1.94l.61-.09c.71.22,2.3-.31,3.07-.41,3-.37,8.51-1.78,11.05-1.11l-1.08-2.66c-1.76,2.42-2.77,5.84-4.05,8.57q-2.22,4.73-4.43,9.47-4.67,10-9.3,20.06c-6.2,13.45-12.28,27-18.45,40.42-.67,1.47,1.48,2.76,2.19,1.28Z"/><path class="cls-1" d="M2073.17,1274.21c-1.59,2-4,1.93-5.93,3.31a7.24,7.24,0,0,0-2.88,5.35,2.07,2.07,0,0,0,.92,2.26c5.63,2.59,11.73,4.54,17.95,3.08,6.7-1.58,11.67-6.6,15.76-11.85.9-1.17.79-3.19-.95-3.57-4.4-1-9.12-2.72-13.7-2.33-5.26.45-10.16,3.72-14.57,6.3a2.17,2.17,0,0,0,1.09,4c15.44.3,28.73-7.38,36.77-20.46a2.2,2.2,0,0,0-1.88-3.28c-16.65-.62-30.92,7.32-40.69,20.55-1.14,1.54.76,3.85,2.5,3.25,4.11-1.41,8.37-2.55,12.33-4.36,4.11-1.89,7.64-4.74,11.11-7.6,1.72-1.42-.12-4.45-2.17-3.74-5.46,1.89-13.68,4.18-16.78,9.67-1.66,2.94-.58,5.47-.18,8.52.37,2.83,4.88,2.86,4.5,0-.24-1.81-1.28-4.07-.64-5.87,1.61-4.51,10.62-6.73,14.28-8l-2.17-3.73c-6.75,5.58-13.29,8-21.46,10.85l2.51,3.25c8.83-12,21.85-19,36.86-18.41l-1.89-3.29c-7.25,11.81-19.09,18.59-33,18.35l1.09,4c3.94-2.32,8.46-5.55,13.18-5.79,3.89-.19,8,1.39,11.78,2.21l-.95-3.57c-4.78,6.17-10.71,11.94-19.11,11.19-2.63-.23-11.2-1.8-6.11-5,1.86-1.19,3.32-1.71,4.53-3.66.78-1.26-1.13-2.82-2.1-1.62Z"/><path class="cls-1" d="M2122.08,1398c4.77,13.76,14.75,23.79,24.33,34.31,10.62,11.66,18.64,24,18.86,40.32.15,11.54-2.54,22.69-4.09,34-1.2,8.72-1.4,18,3.86,25.53,7.25,10.38,21.06,14.78,32.7,17.82,14,3.66,28.84,5.46,43.17,2.65,21.93-4.29,38-20.68,42.78-42.35,6-26.83-3.36-55.55-19.48-77.09l-1.36,3.33c15.38-3.57,28.33-16.81,33.33-31.56,5.1-15-1.3-29.89-17.26-33.77-2.6-.63-3.51,3-1.09,3.93,6.36,2.41,12.45,6,14.69,12.83,1.9,5.77.75,12.14-1.45,17.65-5,12.46-16.19,23.46-29.42,26.54a2.29,2.29,0,0,0-1.36,3.34c14,18.69,22.65,42.35,20.3,65.91-2.12,21.29-14.81,39.7-35.87,45.75-13.4,3.86-27.79,2.8-41.24-.22-11.92-2.68-27.56-6.48-35-17.2-5.16-7.43-4.11-16.92-2.8-25.36,1.62-10.38,3.75-20.68,3.66-31.23-.12-15.2-6.4-27.87-16.17-39.19-10.32-12-22.27-22.27-29.07-36.83-.52-1.12-2.42-.33-2,.85Z"/><path class="cls-1" d="M2175.85,1411.39c25,7.46,51.87,16.59,74.37-2.2,2.16-1.8-.59-4.91-2.87-3.72-22.07,11.42-46.6,1.93-69.44-1.41-2.14-.31-4.34,2.24-2.35,4,10.79,9.72,25.37,15.24,39.76,16.38,11.83.94,26.59-1.6,32.42-13.31,1.34-2.71-2.55-5.06-4.09-2.39-6,10.3-18.7,11.83-29.54,10.74-12.65-1.27-25.63-6.27-35.13-14.83l-2.35,4c24.25,3.54,49.75,13.14,73.11.85l-2.88-3.72c-20.37,17.24-47.14,8.39-70.22,2.7a1.48,1.48,0,0,0-.79,2.85Z"/><path class="cls-1" d="M2163.6,1449.39c-13.48,1.88-27,3.37-40.38,5.85-12.66,2.34-27.16,4.89-38,12.37-17.93,12.4-20.9,41.66-13.57,60.6,4.58,11.82,13.9,20.7,26.71,22.5a2.44,2.44,0,0,0,2.9-1.65c5.29-15.23-2.91-30.07-11.39-42.36l-.38,2.92c20.92-20.88,48.53-29.08,75.1-40.18,2.77-1.16,1.56-5.74-1.26-4.57-27.36,11.4-55.69,19.88-77.24,41.34a2.44,2.44,0,0,0-.38,2.92c7.74,11.24,15.81,24.67,11,38.68l2.9-1.65c-23.6-3.24-29.91-30.39-25.85-50.44,1.93-9.54,6.3-19.65,14.74-25.14,10.19-6.63,23.34-9.13,35.08-11.45,13.53-2.68,27.24-4.27,40.77-6.89,1.9-.37,1-3.1-.78-2.85Z"/><path class="cls-1" d="M2262.41,1439.92c21.27-2.93,43.55-3.13,64.29,3.09,19.44,5.83,37.29,18.84,37,41-.2,13.16-5.77,26.32-12.27,37.56a26.46,26.46,0,0,1-3.19,4.77c-.53.58-1.79,1.32-1.21,1.41s-.16-.26-.27-1c-.22-1.39-.64-2.74-.79-4.16-.83-7.74-.2-15.7.17-23.44.24-5.05,1.48-11.34.06-16.29-3.72-13-16.08-19.36-28.52-20.63-13.14-1.34-27.24.85-37.87-8.74a2,2,0,0,0-2.79,2.78c8.19,9.76,21.14,9.82,32.89,10.22,6.28.22,12.89.47,18.72,3.07s11.71,8.55,13.17,14.87c1.31,5.67-.3,14.12-.54,20.28-.28,7.34-1.23,15.94,1,23.07,2,6.44,7.24,4.62,10.51.24,7.61-10.2,13.12-24.21,15-36.73,1.62-10.75.09-21.9-6.11-31-5.84-8.59-14.67-14.53-24.11-18.55-22.86-9.73-52-11.28-75.86-4.54-1.8.51-1,3,.75,2.72Z"/><path class="cls-1" d="M2097.82,1271.88c-.34-.35,0,.35,0,.76s-.16,1-.22,1.6a11.72,11.72,0,0,1-.23,2.65l2.55-.67c.91,1,.26,1.1.43-.14s.13-2.32.2-3.45a1.67,1.67,0,0,0-3.1-.84,16.86,16.86,0,0,1-3.41,4.67l3.13,1.82a22.82,22.82,0,0,0,.78-6.82,2,2,0,0,0-3.64-1c-3.28,4.87-8,8.21-13.07,11-2.4,1.33-.26,5,2.16,3.69,5.86-3.22,10.66-7,14.28-12.72l-3.63-1a19.31,19.31,0,0,1-.49,5.82,1.89,1.89,0,0,0,3.13,1.82,13.89,13.89,0,0,0,3.8-6l-3.27-.44c0,1.33-.64,4.65.54,5.75a1.54,1.54,0,0,0,2.55-.67c.49-1.67.54-6.17-.84-7.45a1.15,1.15,0,0,0-1.62,1.62Z"/><path class="cls-1" d="M2093.88,1257.68a277.12,277.12,0,0,0-36.52,24.59c-1.93,1.5.25,4,2.15,3.69,5.06-.89,10.22-1.13,15.31-1.8,4.11-.54,9.67-.82,13.24-3.15,2-1.27.77-4.72-1.66-3.94-4.45,1.44-9.26,2-13.86,2.86-2.86.52-10.37.27-10.35,4.7a2.23,2.23,0,0,0,1.58,2.09c1.4.54,3.22-.58,4.43-1.15,1-.48,2.06-1,3.08-1.53s2.92-.74,1-1.06l-.52-4c-5.09,3.25-11.29,5.65-14.95,10.66a2.26,2.26,0,0,0,1.94,3.38c9.06-.83,18.16-1.32,27-3.34,2.5-.57,2-4.85-.62-4.57a232.54,232.54,0,0,0-23.07,3.17c-2.67.55-2,4.71.63,4.7,19.4-.11,38.9-5.63,48.92-23.57,1.25-2.24-1.17-4.15-3.24-3.25-5.95,2.56-9.79,7.62-15.11,11.07-2.52,1.63-.18,5.68,2.37,4,5.3-3.41,9.21-8.48,15.13-11l-3.25-3.25c-9.23,16.41-27.15,21-44.82,21.18l.64,4.7c7.2-1.55,14.5-2.3,21.8-3.13l-.61-4.57c-8.49,2-17.17,2.49-25.82,3.34l1.94,3.37c3-4.21,9-6.37,13.28-9.14,1.43-.92,1.46-3.67-.53-4-1.4-.24-2.57.58-3.78,1.19-.9.45-1.79.94-2.69,1.38-.6.3-2.63,1-2.09,1.23l1.58,2.08c0,1.26.1.44,1.17.46a18.44,18.44,0,0,0,3.1-.6l7-1.42c3-.63,6.14-1.62,9.22-1.76l-.57-4.24c-9.16,2.93-18.69,2.93-28.07,4.63l2.15,3.69c11.29-8.92,23-17.1,34.73-25.44a1.32,1.32,0,0,0-1.33-2.27Z"/><path class="cls-1" d="M2282.1,1256a67,67,0,0,1,10.23,2.8c2.73,1,4.14,1.69,4.64,4.57.34,1.94,3.15,1.66,3.66,0,2.71-8.92-13.36-9.45-18.17-10-1.51-.18-1.86,2.38-.36,2.67Z"/><path class="cls-1" d="M1680.85,1043.19c-15.45,15.63-38.84,24.31-60,28.56a1.87,1.87,0,0,0-.44,3.38c24.21,14,50.45,24.54,77.3,32.28,2.44.71,3.48-3.08,1-3.8-26.53-7.76-52.46-17.88-76.47-31.68l-.44,3.38c21.77-4.45,45.48-13.64,61.09-30,1.32-1.37-.74-3.44-2.08-2.09Z"/><path class="cls-1" d="M1791.12,1027.27c-16.81,35.84-44.53,64.77-66,97.68-1.39,2.12,2,4.1,3.4,2,21.4-32.82,49-62.15,64.73-98.41.63-1.44-1.46-2.71-2.14-1.25Z"/><path class="cls-1" d="M1832.25,1049.68c19.43,9.12,42.79,9.9,59.44,24.64l.42-3.27c-11,7.63-24,12.29-36.24,17.45-9.32,3.93-21.49,7.73-28.32,15.6a2,2,0,0,0,2.81,2.82c8-7.46,19.88-11.3,29.71-15.49,11.58-4.94,23.78-9.51,34.14-16.79a2.1,2.1,0,0,0,.42-3.26c-16.72-14.63-40.71-17.8-61.17-24.57-1.67-.55-2.84,2.11-1.21,2.87Z"/><path class="cls-1" d="M1611.17,1497.62c2.65,48.53,8.91,96.77,12.58,145.22.13,1.78,2.94,2.45,3.32.45,4.83-25.88,7.58-53.39,23.44-75.37l-2.85.37c20.84,19.17,19.23,49.91,32.5,73.22,1.16,2,4.13.24,3.12-1.82-11.81-24-12.28-54.94-33-74a1.86,1.86,0,0,0-2.86.37c-16,22.28-18.82,50.07-23.56,76.31l3.32.44c-4-48.46-10.18-96.72-13.76-145.22-.1-1.4-2.28-1.43-2.2,0Z"/><path class="cls-1" d="M1701,1461.16c8.71,39.72,2.73,80.74,10.4,120.49,2.24,11.58,6.18,23.74,13.65,33.07,4.8,6,12.2,11.18,20.13,8.13,12.5-4.81,17.79-23.28,20-34.88a1.79,1.79,0,0,0-3.44-1c-3.23,10-6.63,26.76-17.57,31.58-7.62,3.36-14.41-4-18.19-9.79-6.51-9.89-9.85-21.8-11.64-33.4-2.83-18.26-3.1-36.85-3.89-55.28-.85-20-1.86-40.23-7.14-59.59a1.17,1.17,0,0,0-2.26.62Z"/><path class="cls-1" d="M1690.19,1549.62c-3.76-1.33-7.14-.77-9.88-4.22l-.77,2.9c10-3.58,19.66-8.27,29.61-12.1a185.79,185.79,0,0,1,30.22-8.34c1.89-.38,1.46-3.41-.46-3.36-10.62.32-21.05,3.87-30.86,7.73-10.07,4-20,8.42-29.85,12.9a1.75,1.75,0,0,0-.35,2.72c3.72,4,7,2.55,11.73,4,1.43.43,2-1.72.61-2.21Z"/><path class="cls-1" d="M1782.63,1538.81c3.35,17.3,4.76,34.92,7.45,52.33.35,2.32,3.53,1.44,3.76-.51,2.45-20.8,5.36-43.23,16.25-61.55l-3.66-.48c1.87,11.64,8.29,22.1,8.75,34a2.05,2.05,0,0,0,3.47,1.43c13.95-14.55,12.44-37.78,28-51.46h-3c10.53,12.11,11.54,28.94,13.5,44.13.46,3.54.2,11,5.85,10.69,4.18-.26,1.62-5.23,3.7-7.28,1.63-1.61-.79-4-2.48-2.49a6.2,6.2,0,0,0-2,3.45,5.7,5.7,0,0,0-.25,2c-.28,1,.13,1.07,1.23.28l-1.13-1.74c-1.19-2.81-1-7.4-1.38-10.47s-.78-6.16-1.25-9.23c-1.78-11.74-4.87-23.19-12.82-32.31a2.12,2.12,0,0,0-3,0c-7.5,6.6-11.71,15.47-15.09,24.7s-5.89,19.53-12.88,26.84l3.47,1.44c-.49-12.34-7-23.07-9-35.09-.29-1.77-2.85-1.85-3.66-.48-11.15,18.83-14.51,42.13-16.62,63.57l3.76-.51c-3-17.31-4.78-34.83-8.7-52-.37-1.59-2.75-.91-2.44.68Z"/><path class="cls-1" d="M1895.46,1428.53c1.27-4.94,6.07-6.16,3.73-11.87-.66-1.59-3-1.91-3.57,0-7.49,26.47-8.36,54.93-6.84,82.24s5.65,55.38,15.84,80.94a2.53,2.53,0,0,0,3,1.73,46.52,46.52,0,0,0,17.27-9.46c4.84-4.15,10.64-10.32,11.9-16.79.33-1.71-1.82-3.39-3.18-1.85-4,4.55-6.59,9.88-11.12,14.06a41,41,0,0,1-16.19,9.26l3.05,1.73c-10.12-25.14-14.35-52.7-16-79.62s-.83-54.88,5.84-81.26l-3.39.45c1.62,3.65-2.17,6.22-3,9.72-.38,1.7,2.19,2.43,2.63.72Z"/><path class="cls-1" d="M1268.86,867a57,57,0,0,0-37.76,20.84c-.86,1.06-1.24,2.87,0,3.88,9.9,8.08,20.73,15,30.41,23.32,7.87,6.78,17,15.73,16,27.05-1.17,13.12-12.66,22.63-24.32,26.64s-25,4.75-36.68.26c-2.8-1.09-4.83,3.65-2.06,4.88,18.2,8,45.77,3.6,59.34-11.47,6.57-7.31,11-17.29,9-27.22-1.93-9.51-9.07-17.24-16.17-23.4-10-8.67-21.29-15.66-31.59-23.94v3.88a54.22,54.22,0,0,1,34.53-19.94c2.69-.41,2.09-5.11-.65-4.78Z"/><path class="cls-1" d="M1346.48,891.68c-21.39,2.19-33,24.42-39.31,42.56a3.12,3.12,0,0,0,2.15,3.79c22.74,7.32,41.2-13.35,41.22-35l-6.26,1.7c7.69,14.66,13.33,32,24.52,44.5,2.39,2.66,6.57-.75,4.86-3.75-4.14-7.3-8.66-14.28-12.44-21.8s-7.24-15-11.14-22.34c-1.58-3-6.27-1.56-6.26,1.69.08,17.54-14.16,34.79-32.86,29.06l2.15,3.79c5.41-16.16,15.4-36.41,34-39.78,2.47-.44,1.93-4.67-.6-4.42Z"/><path class="cls-1" d="M1428.18,871.17c-15.6-.94-30,4.08-42.13,13.89a3.42,3.42,0,0,0-.54,4.16c11.67,16.2,30.89,24.32,43.17,40l-.57-4.4c-8.33,11-18.76,16.68-32.61,14.94-3.82-.48-4.06,5.21-.86,6.36,15.84,5.64,30.67-5.59,39.74-17.63,1-1.38.35-3.23-.57-4.4-12.14-15.37-30.88-23.51-42.91-39v4.86a57.29,57.29,0,0,1,37.28-14.07c3,0,3-4.51,0-4.68Z"/><path class="cls-1" d="M1511,863.4c-16.62-7.79-33.35-1.92-44.92,11.53a3.61,3.61,0,0,0,0,4.93c9,11.44,21.15,20.09,32,29.68l-.58-4.5c-9.09,16.1-25.1,23.91-41.61,30.49-4,1.61-2.59,7.82,1.84,6.69,18.61-4.77,36.69-16.41,46.18-33.44a3.75,3.75,0,0,0-.58-4.5c-11-9.64-22.29-18.63-32.27-29.35l.54,4.23c9-12.28,23.41-17.48,37.72-11.65,2.34,1,4-3,1.73-4.11Z"/><path class="cls-1" d="M2405.14,899.8c2.78,0,2.78-4.32,0-4.32s-2.77,4.32,0,4.32Z"/><path class="cls-1" d="M2404.52,895.38c-25.94,3.88-56.14,23.89-50.72,53.84,4.75,26.25,30.57,36.59,49.07,51.58a51.41,51.41,0,0,1,12.56,13.94,37.05,37.05,0,0,1,3.78,9.25c1,3.85.9,7.87,1.95,11.67.83,3,5.52,3.18,6.24,0,2.39-10.48-3.53-23-10-31-6.81-8.39-16.07-14.29-25-20.14s-18.57-12.06-25-21c-8.59-12-10.35-26.58-2-39.17,8.83-13.36,25.14-21.28,40.4-24.45,3-.62,1.66-4.95-1.25-4.52Z"/><path class="cls-1" d="M2401.36,896.62c10.57,2.81,21.39,4.55,32,7.3,9.83,2.56,20.24,6.05,27.45,13.56,8.05,8.38,10.18,21.77,7.52,32.82-3.38,14-15.7,24.14-18.52,38.46-3.17,16.07,6.41,31.6,9.33,47,.86,4.5,7.7,2.59,6.88-1.9-1.41-7.6-4.16-14.88-6.41-22.26s-4.59-15.3-2.58-23c3.78-14.45,16.46-24.94,18.41-40.15,1.48-11.61-.48-24.25-8.23-33.39-6.77-8-16.8-12.32-26.66-15.14-12.45-3.57-25.34-5-38-7.66-2.81-.6-4,3.59-1.19,4.34Z"/><path class="cls-1" d="M2333.34,926.87a93.43,93.43,0,0,0-19.06-9.37c-6.29-2.19-14.05-4.84-20.78-4-3.6.45-4.54,5.14-.87,6.44,6,2.14,12.72,2.48,18.88,4.44a125.13,125.13,0,0,1,18.71,7.83c3.54,1.8,6.51-3.21,3.12-5.34Z"/><path class="cls-1" d="M2362,854.71c8.34,8,13.34,18.19,18.36,28.45,1.42,2.92,6.49.85,5.31-2.24-4.33-11.32-10.95-21.76-20.22-29.66-2.36-2-5.74,1.24-3.45,3.45Z"/><path class="cls-1" d="M2495.49,860.4c-7.66,7.15-15.77,14.11-22.46,22.2a3.24,3.24,0,0,0,4.58,4.57c8.08-6.69,15-14.8,22.19-22.46a3,3,0,0,0-4.31-4.31Z"/><path class="cls-1" d="M2352.39,985.23a97.89,97.89,0,0,0-13.43,16.28c-2,3,2.8,5.72,4.78,2.79a146.26,146.26,0,0,1,12.09-15.62c2.08-2.33-1.18-5.66-3.44-3.45Z"/><path class="cls-1" d="M2499.39,960.72c8.53,4.19,17.1,8.32,25.33,13.08,3.63,2.09,6.75-3.34,3.27-5.59a109.45,109.45,0,0,0-26.39-12.72c-3-1-5.14,3.78-2.21,5.23Z"/><path class="cls-1" d="M2425.65,923.23a31.51,31.51,0,0,0-11.92,15.2,3.71,3.71,0,0,0,2.57,4.54c5.72,1,10.51,5,16.27,5.94l-1.66-6.31c-5.8,6.74-8.28,15.91-14.72,22.11-2.25,2.17-.66,6.79,2.7,6.51,4.9-.41,9.74.82,14.64.74l-3.82-3.83c.87,9.64-.26,18.11-2.57,27.42-1,3.89,4.72,6.62,6.68,2.82,4.59-8.93,4.43-20.49,3.54-30.24a3.91,3.91,0,0,0-3.83-3.82c-4.9.09-9.74-1.13-14.64-.72l2.69,6.51c6.52-6.3,8.92-15.36,14.66-22.16,1.6-1.9,1.41-5.86-1.66-6.31-5.77-.84-10.58-4.85-16.32-5.78l2.58,4.54a23.32,23.32,0,0,1,8.45-10.92c3.87-2.53.3-8.76-3.64-6.24Z"/><path class="cls-1" d="M2419.14,1030.38c12.7,10.07,40.54,28.45,47,2.2,1.11-4.57-5.94-6.52-7.06-1.94-.84,3.46-2.11,7.2-5.87,8.3-3.17.92-6.76-.2-9.74-1.29-7.43-2.73-14.22-7.48-20.93-11.62-2.61-1.6-5.85,2.36-3.35,4.35Z"/><path class="cls-1" d="M2430.66,1043.34c2.78,0,2.78-4.32,0-4.32s-2.78,4.32,0,4.32Z"/><path class="cls-1" d="M2428.48,1039.9c-2.48,4.54-5,10.68-1.56,15.4,2.95,4,8.52,4.63,13.13,4.43,11.78-.53,25.3-5.33,34.44-12.83a3.46,3.46,0,0,0,.55-4.2c-4.25-6.19-10.69-9.65-17.94-11.24a3.47,3.47,0,0,0-1.84,6.68c5.32,1.87,10.37,3.19,13.78,8.06l.55-4.2c-6.87,5.74-16.73,9-25.38,10.67-3.22.63-8.13,1.59-11.19-.15-3.56-2-1.41-7.19-.17-10.06s-2.77-5.49-4.37-2.56Z"/><path class="cls-1" d="M2431.5,1057.78c2.69,16.65,18.91,26.93,34.53,19.41,13.25-6.39,17.25-22.18,5.46-32.18-3.53-3-8.67,2.14-5.1,5.1s6.49,7.07,5,12c-1.33,4.26-5.15,7.53-9.12,9.3a17.19,17.19,0,0,1-13.84.37c-6.85-3-9.61-9.44-12.42-15.87-1.2-2.73-4.86-.62-4.46,1.88Z"/><path class="cls-1" d="M2447.27,1079.46c.41,10.61,4.2,20.74,8.91,30.16a3.42,3.42,0,0,0,3.05,1.75c10.92-1.23,22.06-6.95,25.21-18.28,3-11-3.74-21.77-13.61-26.44-4.31-2-8,3.91-3.78,6.48,6.44,3.95,12.45,9.71,10.26,18-2.12,8-10.42,12.23-18.08,13.18l3.05,1.75c-4.42-8.61-8.61-17.61-10-27.27-.42-2.83-5.08-2.14-5,.68Z"/><path class="cls-1" d="M1348.76,404.09c11.59-5.73,23.31-11.33,35.29-16.19,5.61-2.27,11.28-4.39,17-6.28s12-3,17.47-5.56c3.08-1.44,1.55-6.54-1.73-6.38-6,.3-12.11,2.78-17.72,4.77-6,2.13-11.9,4.51-17.74,7A345.39,345.39,0,0,0,1346,399.31c-3.12,1.79-.38,6.35,2.79,4.78Z"/><path class="cls-1" d="M1381.78,394.18c4.18,13.23,7.83,29.88,3.32,43.48-6,18.23-25.84,3.46-36.06-2.07-3.21-1.74-6.92,2.59-4,5.23,11.21,10.27,36.67,22.24,45.15,2.43,6.51-15.22,1.58-35.52-3.68-50.37-1-2.92-5.66-1.72-4.7,1.3Z"/><path class="cls-1" d="M1476.9,358.83c-6.37,3.84-14.9,9.93-12.87,18.57,1.65,7,8.54,12,13.6,16.49,5.58,5,12.4,10.76,11.23,19-1.55,10.9-11.22,19.09-20.29,24.1-9.85,5.44-23.32,9.74-34.52,6.35-3.57-1.08-6.17,4.63-2.6,6.17,19.94,8.63,46.46-4.12,58.47-20.67,5.57-7.67,8.72-18.13,4.11-27-3.91-7.52-11.39-12.28-17.61-17.68-2.61-2.28-6.47-5.35-6.88-9.08-.6-5.35,6-9.72,9.73-12.26,2.45-1.68.25-5.62-2.37-4Z"/><path class="cls-1" d="M1902.06,405.63c-.52,22.19-4.24,44.14-7.34,66.07-2.94,20.74-5.93,42.25-3.45,63.19.43,3.68,6.15,3.87,5.91,0-1.39-21.65.32-42.84,3.15-64.32s6.12-43.11,6-64.94a2.11,2.11,0,0,0-4.22,0Z"/><path class="cls-1" d="M1911.26,407.32c24.43-8.2,52.38-3.37,77.19.34a679.74,679.74,0,0,0,86.33,7.32q23.46.5,46.94.34c8.41-.05,17.23-.74,25.55.81,6.06,1.13,10.86,3.88,13.26,9.78,3.72,9.14,2.62,20,2.23,29.65-.56,13.84-1.33,27.68-2.39,41.5-1,12.66-2.77,25.2-3.94,37.83-.31,3.37,5,3.93,5.8.79,2.95-10.94,3.39-22.84,4.28-34.1,1.06-13.27,1.81-26.57,2.38-39.87.65-15,4.4-40.38-12-49-6.57-3.44-14.5-3.61-21.75-3.68-13.58-.12-27.17.17-40.75.1-32.37-.17-64.71-1.22-96.79-5.74-28.14-4-60.49-10.79-87.68.69-1.83.77-.53,3.84,1.35,3.21Z"/><path class="cls-1" d="M1890.91,536.9c71.87-5.47,143.14,7.08,214.73,10.92,9.32.5,18.65.86,28,.88,8.53,0,18.16.82,26.44-1.39,3-.81,2-4.68-.68-5-7.59-1-15.75.18-23.43.19q-12.3,0-24.61-.53c-17.6-.73-35.17-2.11-52.72-3.63-35.94-3.1-71.86-6.87-107.94-7.73-20-.48-39.92-.08-59.77,2.32-2.5.3-2.62,4.21,0,4Z"/><path class="cls-1" d="M1896.61,520.06c-13.52,10-23.68,24.22-32,38.71-8.43,14.76-16.27,31.52-19.37,48.34-.61,3.29,4.22,4.74,5.08,1.4a204.63,204.63,0,0,1,17.94-46.72c7.81-14.45,17.4-28.72,30.53-38.86,1.62-1.26-.55-4.11-2.22-2.87Z"/><path class="cls-1" d="M2155.61,546.5c6.24,2.59,11.7,10.52,15.4,15.81a252.58,252.58,0,0,1,16.55,28.14c4.86,9.28,9.4,18.71,13.85,28.19,2.65,5.65,4.8,13,9.14,17.55,1.88,2,5-.09,4.41-2.56-1.56-6.69-5.79-13.26-8.75-19.44-4.9-10.23-9.93-20.4-15.36-30.36-5.28-9.69-10.95-19.29-17.76-28-4.53-5.79-9.51-11.72-17-12.73-2.1-.28-2.07,2.72-.46,3.39Z"/><path class="cls-1" d="M1849.47,605c2.15,11.85-2,23.51-6.59,34.26-.73,1.7.53,4.51,2.78,3.62,9.73-3.83,20.4-3.52,30.66-2.73,11.3.87,22.48,2.86,33.68,4.59,25.59,4,51,2.85,76.7,1,14.72-1,29.46-2.09,44.23-2,14.28,0,28.57,1.15,42.81,2.28,25.56,2,51.52,3.14,76.68,8.28,20.87,4.27,46.33,11.92,66.84,2.58,3.53-1.62.46-6.83-3.06-5.23-9.19,4.19-20,3.7-29.79,2.63-10.91-1.18-21.65-3.6-32.39-5.79-24.15-4.93-48.92-6.06-73.44-8.08-14.56-1.2-29.17-2.41-43.78-2.64-14.14-.22-28.25.66-42.35,1.63-26.53,1.84-53,3.9-79.48,0-12-1.76-23.86-3.85-35.91-4.78-10.85-.83-22.52-.77-32.71,3.5l3,3c4.66-11.79,8.62-24.4,5.41-37.07-.55-2.18-3.71-1.24-3.32.91Z"/><path class="cls-1" d="M2003.6,447c-17.7.81-32.65,12.45-49.57,16.5-2.23.54-2.44,3.59-.62,4.73,17,10.59,37.26,13.89,56.82,16.41,3.57.46,3.56-5.18,0-5.62-18.73-2.31-37.7-5.61-54.21-15.25l-.62,4.72c16.9-4.56,31.22-15.13,48.65-18.18,1.87-.32,1.44-3.4-.45-3.31Z"/><path class="cls-1" d="M2051.73,447.12c-7.37,6.2-13.35,14-19.25,21.55-3.91,5-7.69,10-11.12,15.26-1.72,2.67,2.54,5.14,4.25,2.49-.64,1,.79-.74,1-1,.86-1,1.63-2,2.4-3.11q3.81-5.19,7.72-10.31c5.67-7.4,11.38-15.24,18.15-21.67,2.13-2-1-5-3.18-3.19Z"/><path class="cls-1" d="M2079.36,467c4.19,1.42,8.23,3.82,12.23,5.71,5.32,2.51,10.57,5.18,15.63,8.18V476c-7.21,4.38-15.26,7.38-23.32,9.78a98,98,0,0,1-10.53,2.59c-2.42.43-5.13.3-7.46,1s-2.25,3.29-.59,4.56c4.46,3.42,15-.84,19.54-2.2,8.71-2.63,17.51-5.95,25.22-10.85a2.86,2.86,0,0,0,0-4.9c-8.88-5-19.84-11.66-30.25-12.52-2.11-.17-2.29,2.91-.47,3.53Z"/><path class="cls-1" d="M1979,634.85c2.66-8.29,5.14-20.09,12.14-26.05,5-4.25,12.31-3.43,18.37-3,13.51,1,26.89,1.94,40.45,2,18.64.05,37.27-.66,55.91,0l-3-3a202.79,202.79,0,0,1,.25,27.78c-.07,1.23-.16,2.45-.26,3.68a2.59,2.59,0,0,1-1.18,1.77c.06.27,2.72,2.26,2.33.07a4.62,4.62,0,0,0-3.53-3.3c-3.66-.77-5.17,4.52-1.55,5.63-.61-.19-1-1.13-.53,0,.15.36.18.76.35,1.12a4,4,0,0,0,2.38,2.44c2.77.94,5.79-1.9,7-4.1,2.2-3.86,1.24-11.34,1.3-15.71.09-6.49-.16-13-.68-19.43a3,3,0,0,0-3-3c-19.93-.63-39.84.32-59.77.25-13.68-.05-27.27-1.49-40.92-1.7-6.71-.11-13.48.73-18.33,5.85-6.78,7.13-9.22,18.38-11.64,27.54a2,2,0,0,0,3.79,1.05Z"/><path class="cls-1" d="M1979.9,636.12c13.61,4.24,27.8,5.23,42,5.67,14.91.46,29.81.71,44.72,1.28,2.32.08,2.94-3.8.56-4.15-28.58-4.19-58,1.2-86.25-6.39-2.32-.62-3.27,2.88-1,3.59Z"/><path class="cls-1" d="M1913,550.32c-6.23,6.74-11.82,15.81-14.1,24.76a2.42,2.42,0,0,0,3,2.95c28.31-9.61,56.54-5.22,85.06,1.06a520.35,520.35,0,0,0,57.16,9.72c14.63,1.56,29.3,2.84,44,3.15,13.79.3,29,.49,42.14-4.22,11.2-4,16.68-12.66,11.21-24a2.9,2.9,0,0,0-2.48-1.43c-16.09-1-32,1.43-48,2.27-15.24.8-29-1.51-43.48-6.19-14-4.54-28-7.34-42.38-10-15.88-3-31.81-5.88-47.92-7.24-17.71-1.51-36.73-1.5-53.77,4.15A3,3,0,0,0,1905,551a179.9,179.9,0,0,1,48.44-3.64c16.49,1.12,32.79,4.07,49,7.08,14.49,2.69,28.58,5.39,42.61,9.93,13.28,4.31,26.3,7.25,40.36,6.77,17.9-.61,35.58-4.09,53.54-3l-2.49-1.42c11.07,22.87-43,19.79-53.45,19.42-13.75-.49-27.47-1.74-41.14-3.21-19.27-2.07-38-5.91-56.9-10-27.91-6-57.77-10.77-85,.76l3.52,2.7c1.49-8.41,6.35-17.2,11.76-23.74,1.31-1.58-.85-3.84-2.28-2.29Z"/><path class="cls-1" d="M1195.11,601.49c6.43,24,3.16,48.46,3.68,72.9.07,3.44,5.25,3.45,5.34,0,.65-24.59,2.28-50.21-4.5-74.15-.82-2.9-5.3-1.68-4.52,1.25Z"/><path class="cls-1" d="M1217.8,590.81c9.52-1.14,18.49,0,27,4.7l-1.17-2.88a38.78,38.78,0,0,1-12.77,18.5c-6.39,4.94-13.38,6.51-21.2,7.49-3.34.41-3.52,5.15,0,5.34,18.21,1,34-13.32,38.88-30a2.58,2.58,0,0,0-1.17-2.88c-9.62-4.84-19.5-6.13-30.13-4.63-2.43.35-1.88,4.63.59,4.33Z"/><path class="cls-1" d="M1204.91,627.68c20.63,7,28.32,27.25,39.06,44.05,2,3.11,6.3.41,4.85-2.84-8.28-18.61-22-40-42.64-45.82-3-.84-4.17,3.63-1.27,4.61Z"/><path class="cls-1" d="M1313.35,607.44c-12.11-14-25.74,3.12-30.81,14.34-6,13.2-12.41,35.9-1.86,48.57,6,7.19,16.76,6.73,24.37,2.47,2.92-1.63.93-6.1-2.24-5.31-5.43,1.35-12.21,4-16.78-.79-4-4.14-4.3-11.07-4.11-16.46.46-13.16,5.13-29.23,14.77-38.69,4.27-4.19,8.84-5.32,13.48-1,2.13,2,5.06-1,3.18-3.18Z"/><path class="cls-1" d="M1272.07,639.61c7.41-3.9,15.17-4.33,23.35-3.35,3,.37,3.68-4.68.72-5.34a33.46,33.46,0,0,0-26.39,4.73,2.3,2.3,0,0,0,2.32,4Z"/><path class="cls-1" d="M1358.76,611.94c-6.21,12.2-16.33,28.43-12.9,42.76.72,3,5.51,2.39,5.43-.73-.38-14.3,5.63-26.93,11.51-39.67,1.25-2.7-2.66-5.09-4-2.36Z"/><path class="cls-1" d="M1359.09,598.47c11.73,9.55,19.63,22.74,26.16,36.19,3.36,6.94,6.37,14.06,9.37,21.17,2.78,6.58,5,13.85,8.63,20,1.63,2.77,6.11.95,5.22-2.21-2-7.09-5.54-14-8.39-20.82-3.09-7.39-6.4-14.68-10.09-21.79-7-13.4-15.44-26.58-27.52-35.93-2.38-1.85-5.79,1.42-3.38,3.38Z"/><path class="cls-1" d="M1349.71,643.74c8.79-5.55,18.48-.86,25.9,4.65,2.72,2,6.2-2.49,3.63-4.71-9.33-8.09-22.18-12.42-32.37-3.62-2,1.74.6,5.09,2.84,3.68Z"/><path class="cls-1" d="M1466.29,602.42c-14.63,2.05-27.6,14.88-34.82,27.08-6.87,11.61-9.43,28.78,5.15,35.67a3.52,3.52,0,0,0,3.55-6.07c-10.37-7.24-6.32-19.66-.66-28.77,6.18-9.94,16.39-20.18,28.18-22.85,3.38-.77,1.85-5.52-1.4-5.06Z"/><path class="cls-1" d="M1431.73,654.68c7,26.35,37.78,9.43,53.19,2,3.16-1.52.92-7-2.42-5.74-12.6,4.85-37.6,21.35-45.61,2.32-1.29-3.07-6.06-2-5.16,1.42Z"/><path class="cls-1" d="M1528.27,595.65c7.76-.44,15.44-1.54,23.19-2.18,7.37-.6,15.5.2,22.67-1.52,3.33-.8,3.27-5.85,0-6.69-7.36-1.89-16.15-.25-23.59.66a211.46,211.46,0,0,0-23.06,3.92c-3.19.77-2.57,6,.79,5.81Z"/><path class="cls-1" d="M1550.34,596.78c-.79,26.29-9.2,51-12.71,76.82-.5,3.69,4.79,5.45,5.79,1.59,6.54-25.24,11.77-52.27,11.8-78.41,0-3.15-4.78-3.14-4.88,0Z"/><path class="cls-1" d="M1350.44,642.31a11.05,11.05,0,0,1-3.61,10c-2.24,2.13,1.1,5.42,3.38,3.38a14.33,14.33,0,0,0,4.57-14.54c-.64-2.88-4.77-1.6-4.34,1.19Z"/><path class="cls-1" d="M1350.39,641.1a158.66,158.66,0,0,0-4.58,20.29c-.49,3.48,4.65,5.12,5.43,1.5,1.45-6.82,2.43-13.7,3.58-20.57.48-2.85-3.61-4.12-4.43-1.22Z"/><path class="cls-1" d="M2015.27,1732.49c11.19,10.58,15.3,27.6,19.2,41.94,4.51,16.63,7.57,33.63,12.17,50.23l2.25-2.24c-19.18-3.81-42.41,5.4-43.43,27.36a2,2,0,0,0,2.44,1.86c18.11-4.36,34.61-14.09,45.35-29.54,1-1.4-.64-3.36-2.21-2.87a121.4,121.4,0,0,0-12.36,5.19c-2.47,1.1-4.93,2.21-7.44,3.21a11.32,11.32,0,0,0-2.42.92c-.11.08-1,.18-1,.32,0,0,.89,3.05,1.79,2.18,1.72-1.66-.78-4-2.55-2.55-1.3,1-2.07,2.84-.31,3.91s4.47-.62,5.92-1.21c6.5-2.6,12.77-6.12,19.46-8.2l-2.21-2.87c-10.17,14.53-26,23.62-43,27.79l2.45,1.86c.83-19.37,21.93-27.09,38.6-23.85a1.84,1.84,0,0,0,2.24-2.24c-5-17.63-8.5-35.63-13.61-53.23a169.84,169.84,0,0,0-8.85-24.71c-2.53-5.41-5.74-11.88-11.12-15-1-.6-2.22.84-1.31,1.69Z"/><path class="cls-1" d="M2024.92,1724.8c10.11-5.94,19.57-13,29.41-19.34,10.29-6.64,22-14.76,34.24-17,10.37-1.86,15.66,7.89,19.58,16,5.74,11.85,9.47,24.68,13.15,37.28,3.45,11.78,6.23,24.1,11.25,35.33l1.73-3c-19.69-.5-35.49,11.11-47.17,26a2.07,2.07,0,0,0,.91,3.41c19.16,5.38,39.19-6.23,50.95-20.81,1-1.28.51-3.69-1.48-3.57a30.38,30.38,0,0,0-9.25,2l2.36,3.08a29,29,0,0,1,4-5.47,2.11,2.11,0,0,0-2.54-3.3c-15.09,6.66-26.88,18.46-39.7,28.52-1.85,1.45.75,4,2.58,2.59,12.62-10,24.35-20.88,39.24-27.48l-2.55-3.3a33.61,33.61,0,0,0-4.65,6.33c-.82,1.46.59,3.77,2.37,3.08a25.86,25.86,0,0,1,8.14-1.86l-1.47-3.57c-10.81,13.45-29.12,24.79-46.92,19.83l.9,3.42c11-14.13,25.59-25.39,44.28-25a2,2,0,0,0,1.72-3c-4.89-10.9-7.51-23-10.91-34.36-3.88-13.06-7.86-26.34-14-38.58-3.65-7.35-9.24-17.24-18.56-17.57-11.35-.4-23.37,7.64-32.58,13.3-12.51,7.67-24,16.78-36.52,24.48a1.43,1.43,0,0,0,1.44,2.47Z"/><path class="cls-1" d="M2040.54,1830.9a1.13,1.13,0,0,0,0-2.25,1.13,1.13,0,0,0,0,2.25Z"/><path class="cls-1" d="M2040.54,1824.35l-4.08.07a1.27,1.27,0,0,0,0,2.53l4.08.07a1.34,1.34,0,0,0,0-2.67Z"/><path class="cls-1" d="M2061.21,1104.23c3.95-5,3.91-10.52-.86-15-2.25-2.09-5.61,1.24-3.38,3.38,2.63,2.53,3.11,5.15.73,8.08-2,2.48,1.55,6,3.51,3.51Z"/><path class="cls-1" d="M2041.59,1068c-2.41-4-5.66-6.68-2.95-11.47l-3.18,1.29c12.06,2,26,.52,31.34-12.18,5-11.86.86-25.9-4.3-37l-3.81,5a124.39,124.39,0,0,1,26.66,14c8.38,5.72,15.33,13,23.42,19,2.55,1.89,6.34-1.87,4.43-4.42-6.24-8.32-15.71-14.93-24.3-20.66a131.41,131.41,0,0,0-28.42-14.47c-3-1.09-5,2.54-3.81,5,4.16,8.69,7.69,19.67,4.86,29.29-3.22,11-14.68,12.41-24.57,11a2.93,2.93,0,0,0-3.18,1.3c-4,7.57-.22,11,4.49,16.87,1.53,1.89,4.52-.54,3.32-2.56Z"/><path class="cls-1" d="M2034.46,1067.72c7.1,12.31,14.54,24.45,22.57,36.18,2,2.95,6.79.27,4.86-2.84q-11.23-18.13-23-35.94c-1.81-2.76-6.13-.3-4.45,2.6Z"/><path class="cls-1" d="M2089.18,979.26c3.19,8.87,8,21.1,17.84,24.55,6.77,2.37,13-1.81,16.89-7.12,7.83-10.74,10-32-4-39-4.77-2.36-10.1-2.44-15.26-1.62a61.61,61.61,0,0,0-21.57,8.36c-3.9,2.36-.47,8.1,3.55,6.07,5.79-2.91,11.06-5.67,17.37-7.18,1.12-.27,2.26-.49,3.41-.66-.82.12.56-.05.81-.07.64-.06,1.28-.09,1.92-.1.93,0,1.85.05,2.77.13s-.6-.1-.09,0l.57.1c.52.11,1,.21,1.53.36.34.09.68.21,1,.32,1.09.34-.22-.17.52.21s1.27.7,1.9,1.08c.93.58-.23-.27.38.28.24.22.48.42.71.64s.51.55.78.82c.75.79-.15-.3.29.35s.77,1.16,1.1,1.77c.18.34.34.69.5,1,.24.5-.09-.22-.11-.26.1.24.2.48.28.72.24.69.45,1.38.62,2.08q.13.54.24,1.08c.05.28.25,1.75.12.62a29.65,29.65,0,0,1,.18,4.8c0,.78-.11,1.56-.2,2.34,0,.19-.09.63,0-.24,0,.22-.06.43-.1.64-.08.46-.15.92-.25,1.38a34.13,34.13,0,0,1-1.27,4.63c-.24.73-.51,1.45-.8,2.16.37-.91-.16.35-.26.57s-.35.73-.54,1.09c-.33.65-.69,1.29-1.08,1.9-.19.3-.38.6-.59.89s-1,1.26-.37.53a19.29,19.29,0,0,1-1.33,1.52c-.21.21-.42.42-.64.61s-1.22,1-.47.44a13.85,13.85,0,0,1-1.53,1c-.24.14-.49.25-.73.37-.53.27.64-.23.09,0-.18.06-.35.14-.53.19l-.84.24c-.49.13-.78.11-.28.07a14.29,14.29,0,0,1-1.85,0c-.6,0,.66.13.06,0a5.18,5.18,0,0,1-.66-.14l-1-.29c-.85-.27.09.11-.63-.26-.38-.2-.75-.39-1.12-.61a16.88,16.88,0,0,1-4-3.55c-3.88-4.42-6.69-10.46-8.89-16.09-1.06-2.7-5.45-1.59-4.43,1.23Z"/><path class="cls-1" d="M2118,929.11c5.49,5.46,11.26,10.62,17.06,15.75l3.15-5.41c-6.12-2.56-10.15-6-15.21-10.15V934c7.92-7.61,19.15-9.12,29.5-11.12s20.32-4.68,28.69-11.43c2-1.61.91-4.41-.73-5.65-11.86-9-25.64-16.48-38.9-23.16-3.12-1.58-7,2.64-4,5.15,11.85,9.78,26.89,15,39.25,24.22l-.73-5.65c-16.71,13.69-42,7.4-57.85,22.9-1.19,1.17-1.4,3.61,0,4.74,6,4.8,10.91,9,18.24,11.66,3.75,1.35,5.18-3.9,2.5-5.93-6-4.53-11.95-9.1-17.68-14-2.27-1.93-5.48,1.15-3.31,3.31Z"/><path class="cls-1" d="M2175.33,797.75c-8.89,13.64-10,31.81-.76,45.65,7.32,11,21.44,17.1,32.75,7.82,8.5-7,11.63-18.51,12.9-29,.51-4.12-6-4.76-7.09-1-3.3,11.75-11.75,34.85-27.47,22.62-13.21-10.28-13.59-30.06-6.28-43.81a2.35,2.35,0,0,0-4.05-2.37Z"/><path class="cls-1" d="M2204.82,820.39c.42-8.59,2.54-17.39,12.81-14.44,9,2.6,15.4,9.56,23,14.59,2.77,1.83,6.69-1.89,4.68-4.68-6.31-8.77-19.07-16.81-30-17.64-13.08-1-17,11.23-16.09,22.17.32,3.57,5.45,3.66,5.63,0Z"/><path class="cls-1" d="M2225.5,768.24c6.56,5.64,15.29,11.94,24.48,10.85,6.74-.8,11.43-5.78,13.41-12.06,3.9-12.39-2.59-29.06-16.86-30.2-4.64-.37-9.29,1.2-13.37,3.29a44,44,0,0,0-7.69,5.13c-2.89,2.38-6,5.08-7.73,8.44-1.54,2.91,1.61,6.39,4.62,4.61,2.72-1.6,5-3.92,7.4-5.91.88-.72,2-1.61,2.61-2,.94-.7,1.91-1.38,2.9-2s1.83-1.1,2.77-1.58l1.19-.58c1.06-.5-.32.07.76-.31.78-.27,1.55-.54,2.35-.74.39-.1.79-.19,1.19-.27.17,0,.35-.06.52-.09.9-.17-.94.07-.05,0a20.35,20.35,0,0,1,2.07-.08c.35,0,.69,0,1,.07s.73.14-.38-.06c.22,0,.45.06.66.11l1.78.49c1,.29-.21-.14.15,0s.63.3.93.47c.52.29,1,.62,1.49,1-.27-.19-.48-.45.1.11.25.24.52.47.76.72.42.42.81.87,1.19,1.33-.21-.25-.33-.51.09.17.19.3.4.59.59.89.3.5.57,1,.83,1.52.14.29.27.59.41.89-.22-.48-.1-.3.11.33a26.7,26.7,0,0,1,1,3.85c.06.33.11.66.17,1-.13-.78,0-.37,0,.13.06.7.11,1.41.12,2.11s0,1.26,0,1.88c0,.33-.06.66-.08,1-.07,1.13.11-.43,0,.34a27.72,27.72,0,0,1-.9,3.59c-.08.24-.59,1.33-.11.31-.12.25-.22.5-.35.74-.29.53-.58,1-.9,1.56-.07.11-.68.92-.32.45s-.25.3-.36.41c-.41.43-.83.82-1.28,1.21-.29.25.6-.34-.19.12-.26.15-.5.33-.76.47s-.47.25-.71.37c-.48.25.16,0,.22-.08a5.77,5.77,0,0,1-.58.22,15.92,15.92,0,0,1-2.06.52c-.56.1.08,0,.17,0a5.36,5.36,0,0,1-.69.06c-.4,0-.79,0-1.19,0s-.83,0-1.24-.07a2.24,2.24,0,0,1-.77-.1,24.47,24.47,0,0,1-2.81-.68c-4.93-1.51-9.55-4.57-13.73-7.76-2.19-1.67-5,2-2.95,3.83Z"/><path class="cls-1" d="M1606.61,347.3c16.3-28,49-51.73,82.31-38.8,4.38,1.7,6.31-5.38,1.94-7.05-34.77-13.22-74.7,10.83-89.27,42.91-1.51,3.34,3.1,6.24,5,2.94Z"/><path class="cls-1" d="M1647.38,359.5c4.27-7.27,10.4-13.59,18.52-16.42,7.89-2.76,15.53-1.05,23.14,1.74,3.45,1.26,5.51-4.05,2.46-5.83-18.36-10.7-39.54.72-49,17.67-1.76,3.17,3,6,4.86,2.84Z"/><path class="cls-1" d="M1677.7,371.45l.67,3.9a3.47,3.47,0,0,0,6.69,0l.68-3.9a4.27,4.27,0,0,0-1.07-4.06,4.34,4.34,0,0,0-3-1.22,4.17,4.17,0,0,0-4,5.28Z"/><path class="cls-1" d="M1685.8,377.85c4.41,0,4.42-6.85,0-6.85s-4.41,6.85,0,6.85Z"/><path class="cls-1" d="M1681.72,380.76c2.89,0,2.9-4.5,0-4.5s-2.9,4.5,0,4.5Z"/><path class="cls-1" d="M1677.63,380.85c3,0,3-4.68,0-4.68s-3,4.68,0,4.68Z"/><path class="cls-1" d="M1677.63,380.85c3,0,3-4.68,0-4.68s-3,4.68,0,4.68Z"/><path class="cls-1" d="M1679.33,370.34l-.14,3.46.74-1.79-.33.29c-1.94,1.71-.41,5.24,2.12,5.12a3.11,3.11,0,0,0,2.59-1.48,3,3,0,0,0-.47-3.64l-.33-.29.74,1.79-.14-3.46a2.39,2.39,0,1,0-4.78,0Z"/><path class="cls-1" d="M1675.15,369.65c-1.06,2.59-1.63,5.35-.28,8s4.15,3.57,6.85,3.73c3.27.19,3.81-4.76.76-5.62a5.29,5.29,0,0,1-1.79-.76c.32.23-.29-.35-.07-.09s-.32-.45-.39-.58a6.56,6.56,0,0,1-.16-1,6.76,6.76,0,0,1,0-2.33,2.58,2.58,0,0,0-5-1.38Z"/><path class="cls-1" d="M1675.61,365.07a42.82,42.82,0,0,0-2.56,6.24c-.12.39-.2.78-.29,1.18s0,.35.11,0a3.07,3.07,0,0,0-.43,1.6,5.27,5.27,0,0,0,.62,2.64c2.19,4.16,7.22,2.47,10.27.49,3.49-2.27.47-7.21-3.22-5.51a11.93,11.93,0,0,1-1.84.68,7.19,7.19,0,0,0-.88.24c-.6.26.58.11-.16,0,.88.1,1,.52,1.51,1,.29.27,0,0-.06-.31a4.35,4.35,0,0,0-1-1.65l.78,1.33c.11.61,0-.52,0-.79a7.86,7.86,0,0,1,.16-1.28,33.6,33.6,0,0,1,1.2-4.05c.86-2.49-3.12-4.21-4.28-1.81Z"/><path class="cls-1" d="M1671.33,369.73c-1.08,2.89-2,6.45-1.16,9.55a9.26,9.26,0,0,0,6.64,6.3,3.11,3.11,0,0,0,2.39-5.66c-1.51-1-2.56-1.43-3.29-3.23a9.76,9.76,0,0,1-.15-5.74,2.3,2.3,0,0,0-4.43-1.22Z"/><path class="cls-1" d="M1764.22,979.25c-.66-14.73-3.83-29.43-5.72-44a224,224,0,0,1-2.13-24.81c-.1-6.47,0-13.64,2.5-19.71,1.54-3.68,5.29-8.52,9.54-9.16,3.66-.55,6.72,2.55,8.86,5.09,7.7,9.16,11.83,21.82,15.54,33,2.32,7,4.37,14,6.3,21.11,1.35,5,2.29,10.22,4.23,15a3.66,3.66,0,0,0,7.05-2c-1.79-11.83-6.06-23.91-9.81-35.25-4.23-12.8-9-26.85-18-37.16-7.4-8.45-17.57-9.31-25.32-.75-9.88,10.91-8,28.42-6.63,41.91,2,19.05,7.46,37.67,9.05,56.73.24,2.91,4.73,3,4.59,0Z"/><path class="cls-1" d="M1825.27,900.45c-6.72,11.74-7.9,28,.9,39.1,9.82,12.34,26.31,9.51,37.71,1,9.73-7.26,14.73-18.79,11.77-30.77a33,33,0,0,0-20.81-22.92c-14.48-4.9-28.33,4.25-35,16.91-2.37,4.5,3.83,8,6.72,3.93,5.37-7.47,12.69-15.16,22.77-13.58,7.55,1.17,13.92,7,17,13.85a20.56,20.56,0,0,1-2.8,22c-6.5,7.68-20.07,14.36-29.28,7.61-10.55-7.73-10.22-24.2-4.94-34.76,1.34-2.68-2.53-5-4-2.37Z"/><path class="cls-1" d="M1924.15,862.85c-13.88,9.18-23.24,24.86-24,41.59-.49,10.27,3.62,25.56,16.75,24.11,7.51-.83,13.95-7.06,18.43-12.66a35.31,35.31,0,0,0,7.43-20.22c1.12-17.62-7.11-35.47-15.37-50.54A242.26,242.26,0,0,0,1912.09,821c-3.92-5.52-7.84-11.19-12.74-15.89-2.95-2.84-8.11.83-5.81,4.49,6,9.59,13.29,18.38,19.35,28,8.3,13.16,16,27.2,19.8,42.4,3.42,13.77,2.06,26.71-9.13,36.39-2.73,2.35-7.26,5.7-11,3.58-3.57-2-4.66-7.46-5.06-11.15-1.74-15.94,6.31-32.43,19-41.87,2.37-1.75.2-5.74-2.36-4Z"/><path class="cls-1" d="M1981.9,883.47a23.78,23.78,0,0,0,24.88-12.68c5.54-11,2.5-22.72-4.86-31.94-1.14-1.43-3.24-1.26-4.7-.61-10.25,4.58-19.93,12.32-22.7,23.71-2.28,9.33.52,19.07,6.17,26.65,14.39,19.31,41.94,22.46,61,8.19,3.88-2.92.61-9-3.89-6.64-16.19,8.45-36.57,8.2-49.16-6.51-4.53-5.3-7.31-12.45-6-19.45,1.82-9.51,10.29-15.41,18.51-19.24l-4.71-.61c5.42,6.56,7.81,15.39,3.8,23.3a20.2,20.2,0,0,1-17.71,11.23c-2.51.06-3.34,4.22-.62,4.6Z"/><path class="cls-1" d="M1349.67,1705c2.83,0,2.84-4.41,0-4.41s-2.84,4.41,0,4.41Z"/><path class="cls-1" d="M1354.61,1699c-3,.74-5.87-.58-8.86-.7-3.75-.14-6.73,2.16-9.54,4.34-4,3.09,1.37,10.14,5.43,7.05,2.47-1.88,6-3.75,6-7.28a14.27,14.27,0,0,0-.2-1.6c0,.51-.27.68.09,0-.24.48.17-.81.34-1.45a36.67,36.67,0,0,1,1.62-4.43h-8.07c1.31,2.34,0,5.16,1.38,7.58,2,3.54,6.14,3,9.35,1.7,5.56-2.19,3.53-10.74-2.52-9.16.45-.12-1.64.49-1.55.25.19-.51,2,1.14,2.06,1.15.26.36.33.46.22.29a9.9,9.9,0,0,0-.79-1,4.57,4.57,0,0,0-1.06-.84c-1.89-.83-4.27-.93-5.79.75s-1.84,4.13-2.53,6.13c-1,2.93,1.66,6.15,4.64,6.08s6.48-.71,7.86-3.86-.28-5.81-2.33-8.06c-3.62-3.94-8.77.38-8.12,4.73.06.37.09,2,.1,1.72s.42-1.18.11-.44a7.69,7.69,0,0,0-1,3.17c0,3.31,3.11,6.3,5,8.67l7-7c-3.36-2.63-7.35-4-11.07-6l2.32,5.7a47.83,47.83,0,0,0,1.41-8.07l-1.34,3.23-3.24,1a4,4,0,0,0,4.79-4.79,5,5,0,0,0-7.89-2.89c-2.72,2.05-2.58,5.86-3.46,8.85a5.12,5.12,0,0,0,2.32,5.71c3.3,1.74,7.16,2.84,10.16,5.1,2,1.48,5,.48,6.39-1.28,1.61-2.09,1.18-4.55-.39-6.5-.5-.63-1.73-2.88-2.49-3.29.66.36-.55,4.48.19,3.08,1.41-2.67,1-5.64.52-8.49l-8.12,4.72c.84,1,1.3.27,1.39-2.13q2.57-3,0-2.43l4.63,6.08a20.68,20.68,0,0,0,.92-3c.23-1.44,1.1-1.23-.9,1l-5.79.74c-.64-.26-2.63-2.29-.8-.55.09.09.16.2.25.28a6.6,6.6,0,0,0,2.68,1.59,11.19,11.19,0,0,0,6.33-.24l-2.52-9.16a17.58,17.58,0,0,1-1.9.72,5.27,5.27,0,0,0,3.58,2.77c.1.55.14.5.1-.17,0-.41,0-.83,0-1.24a14.57,14.57,0,0,0-1.93-6.91c-2.2-3.82-7.09-2.4-8.54,1.11-1.33,3.23-2.86,6.81-2.62,10.39.19,2.8,0,.87.1.6,0,0,.9-2.39.86-2.37-1.07.44-2.27,2-3.13,2.72l6.34,6.35c2.42-2.14,2.42-2.14,5-2,3.85.19,5.78-1.84,8.85-3.71a2.35,2.35,0,0,0-1.81-4.28Z"/><path class="cls-1" d="M1342.34,1696.51l.34.45-.36-1.35c-.09,1.87.74,2.91,1.74,4.34l-.4-3c-.61,2.22.14,3.73,1.55,5.39a5.71,5.71,0,0,1,.39.47c-.45-.6-.54-.72-.27-.34.12.2.25.42.38.62.31.45.72.84,1,1.28a4.33,4.33,0,0,1-.93-2c-.4-1.53.21,1.45.1.93.08.38.12.86,0-.51.2,1.83,1.59,4.07,3.8,3.79,1.73-.22,3.28-.72,4.25-2.34a5.94,5.94,0,0,0,.87-3.33,6.82,6.82,0,0,0-2.21-4.55c-1.69-1.73-3.61-3-6.15-2.23l3.06.4c-1.47-.94-2.66-1.8-4.49-1.6l1.35.37-.48-.32c-2.06-1.35-5.12,1.45-3.53,3.53Z"/><path class="cls-1" d="M1397.21,1674.19c1.23,19-10.84,33.42-19,49.38a1.72,1.72,0,0,0,3,1.73c10.32-14.23,21.32-32.84,19-51.11-.23-1.83-3.07-1.94-3,0Z"/><path class="cls-1" d="M1397.66,1674.79c6.1,10.7,10.6,22.14,15.79,33.28,4.81,10.3,10.54,21.91,19.3,29.46a1.67,1.67,0,0,0,2.36-2.35,160.6,160.6,0,0,1-19.53-30.2c-5.15-10.54-9.79-21.33-15.86-31.39a1.19,1.19,0,0,0-2.06,1.2Z"/><path class="cls-1" d="M1440.36,1688.79a205.17,205.17,0,0,0-6.9,22.77c-1.86,7.33-4.4,15.22-4.87,22.78-.13,2.19,2.8,2.17,3.5.48,3-7.12,4-15.53,5.65-23s3.57-14.82,5.55-22.18c.52-1.93-2.25-2.61-2.93-.81Z"/><path class="cls-1" d="M1472.7,1706.63c-8.35,11.56-17.78,25.54-18.89,40.19-1.19,15.68,13.67,23.83,27.89,23.07,2-.1,2.61-3.15.49-3.59-7-1.45-15.08-1.75-20.34-7.28-4-4.18-4.39-10.1-3.47-15.52,2.19-12.87,9.93-24.58,16.58-35.54.9-1.48-1.29-2.67-2.26-1.33Z"/><path class="cls-1" d="M1467.33,1728.42c8.47-.42,17,2.54,24.88,5.33,1.92.68,3.12-2.29,1.38-3.25a41.25,41.25,0,0,0-26.61-4.7c-1.49.25-1.14,2.69.35,2.62Z"/><path class="cls-1" d="M1478.68,1697.8c10.7,8.84,24.7,16,38.75,17.09,2,.14,2.29-2.87.46-3.36a122.09,122.09,0,0,1-37.19-16.34c-1.55-1-3.48,1.4-2,2.61Z"/><path class="cls-1" d="M1550.49,1729.36c4.87,3.09,9.82,6,14.79,9,4.49,2.64,9.09,5.9,14.07,7.46,1.92.61,3.55-2.08,2-3.44-3.89-3.45-9.06-5.73-13.62-8.21-5.08-2.75-10.16-5.47-15.33-8.06a1.9,1.9,0,0,0-1.91,3.28Z"/><path class="cls-1" d="M1569.84,1742.41c-6.5,8-12.79,16.15-18.65,24.64s-12.46,17.43-15.85,27.14c-.72,2,2.15,2.91,3.25,1.38,6-8.32,10.32-18,15.88-26.6s11.38-16.82,17.43-25c.88-1.19-1.12-2.75-2.06-1.59Z"/><path class="cls-1" d="M1140.2,1263.27c5.9,20.62-4.08,44.68-11.9,63.47-8.78,21.08-20.2,40.93-29.14,61.91-.86,2,2.07,3.85,3,1.78,10-21.35,20.9-42.28,29.75-64.13,7.71-19,17.07-43,10.92-63.77a1.39,1.39,0,0,0-2.67.74Z"/><path class="cls-1" d="M1140.46,1264c16.45,17.55,34.06,34,50.54,51.53,16.26,17.29,33.52,36,42.75,58.17.88,2.11,4.37,1.18,3.48-1-9.11-21.84-25.61-40.35-41.6-57.42-17.17-18.33-35.73-35.27-53-53.48-1.35-1.42-3.49.73-2.15,2.16Z"/><path class="cls-1" d="M1105.06,1394.69c22.54-7.31,44.53-16.23,67.33-22.78a277.81,277.81,0,0,1,35.15-7.94c12.09-1.82,23.94-1.88,36.12-1.39,1.81.08,2.29-2.93.44-3.22-23.08-3.59-48,2.11-70.13,8.49-23.63,6.82-46.61,15.78-69.5,24.71-1.29.51-.79,2.57.59,2.13Z"/><path class="cls-1" d="M1161.31,1302.64c-11.59,7.65-21,19.51-27.86,31.47-5.46,9.61-12.18,24.53-4.82,34.9,8.34,11.76,30.26,10.27,41.72,5,13.87-6.36,20.44-21.51,19.78-36.2-.78-17.47-10.91-33.92-27.66-40-2.33-.84-3.33,2.87-1,3.71,25.7,9.35,36,51.45,10.87,67.54-6.81,4.37-15,5.37-22.93,5.12-6-.2-13.26-1.27-17.45-6.12-7.47-8.64-1.12-22.8,3.44-31.22,6.52-12,15.78-24.22,27.23-32,1.36-.92.09-3.14-1.3-2.22Z"/><path class="cls-1" d="M1140.36,1251c7.4,21.44,11.16,44.49,14.23,66.9a342.81,342.81,0,0,1,3.29,35.76c.23,7.34.85,16.14-2,23.11-.87,2.14,2.83,3.72,3.77,1.58,3-6.9,2.63-15.31,2.41-22.68a330,330,0,0,0-3.36-35.64c-3.23-23.24-7-47.87-16-69.68-.58-1.41-2.88-.87-2.35.65Z"/><path class="cls-1" d="M1166.37,1536.43c-19.59-7.38-30.12,16.51-33.23,31.67-1.36,6.64-4.25,39.93,11.71,30,4.6-2.87,8-7.91,10.82-12.36,6.2-9.61,11-20.15,15.5-30.63l-3,.39c17.64,15.81,26.25,39.68,46,53.35,1.52,1.05,3.45-1.41,2-2.57-18.64-14.88-27.68-37.68-45.25-53.49-.82-.74-2.49-.82-3,.38-5.67,13.08-11.67,28.29-21.7,38.79-3.37,3.53-7.38,6-9.49.22-2.33-6.33-1.47-14.22-.38-20.7,1.4-8.24,4-16.66,8.71-23.63s12-11.3,20.52-8.3c2,.7,2.78-2.39.86-3.12Z"/><path class="cls-1" d="M1230.47,1534.74c11.71,13.12,18.61,30.43,24.07,46.91a325.48,325.48,0,0,1,12,50.73c.29,1.78,3.35,1.38,3.18-.43-1.71-18.06-6.73-36.23-12.83-53.25-5.78-16.14-13-32.86-24.73-45.62-1-1.12-2.66.53-1.66,1.66Z"/><path class="cls-1" d="M1244.42,1514.34c4.68-4.44,10.91-8.52,17.67-7.19,5.59,1.1,9.67,5.62,12.13,10.51,6.49,12.89,3.8,29.39-4.44,40.82-6.86,9.51-16.68,14.26-27.11,18.84-1.88.83-.5,3.65,1.36,3.22,19.5-4.56,35.21-22,37.13-41.93,1.2-12.47-3.44-30.61-17.49-34-8-2-15.47,2.62-21,8.06-1.12,1.11.58,2.8,1.72,1.72Z"/><path class="cls-1" d="M1324.09,1546.49c2.35,9.18,6.21,18,12.42,25.19,1.2,1.42,3.16-.61,2-2a67.15,67.15,0,0,1-12.09-23.82,1.22,1.22,0,0,0-2.35.65Z"/><path class="cls-1" d="M1301.92,1452.2c.35-4,.13-7.85-2.84-10.87-2.64-2.69-7.41-4.33-11.1-3.23-1.74.51-1.91,3.27,0,3.7,2.91.67,6,.13,8.46,2.17,2.29,1.88,3.13,5.42,3.14,8.23a1.17,1.17,0,0,0,2.34,0Z"/><path class="cls-1" d="M1300.15,1447.09c-4.39,2.89-9.6,7-10.15,12.62-.41,4.27,2.31,7.7,6,9.55,11.61,5.88,24.56-2.28,30.77-12a1.78,1.78,0,0,0,0-1.86c-6.48-9-15-17.11-25.56-21.06-1.7-.63-2.93,2.23-1.25,3a48.53,48.53,0,0,1,12.69,8.16c3.05,2.66,7.63,6.11,9.42,9.81,1,2.07-.28,3-1.92,4.77a24.34,24.34,0,0,1-4.24,3.74,22.36,22.36,0,0,1-8.51,3.6c-4.4.82-10.67.35-13.44-3.75-3.81-5.64,3.38-11.59,7.42-14.44,1.24-.87.1-2.92-1.2-2.06Z"/><path class="cls-1" d="M1833.09,1218.48c-7.71,6.52-16.29,15.39-16.43,26.22-.1,7.47,4.72,13.58,11,17.1,17.1,9.54,41.68,3.44,54.22-10.84a3.28,3.28,0,0,0-4.64-4.64c-11.89,10.62-29.36,16.71-44.87,10.64-5.34-2.09-10.12-6.19-10.46-12.26-.52-9.27,8-17.5,14.27-23.1,2.13-1.9-1-4.93-3.12-3.12Z"/><path class="cls-1" d="M1918.46,1165.78c-8.69,11.64-18.67,22.62-25,35.82-1.37,2.83,1.54,6.53,4.6,4.6,6.87-4.33,15.55-8,23.85-7.06,7.56.83,14.08,8.61,11,16.33s-11.37,13.75-17.57,18.86c-6,5-14.37,9.76-18.49,16.52-2.28,3.75,2.74,7.15,5.81,4.49,7.87-6.83,16-13.46,23.75-20.46,6.48-5.88,15.09-14,14.61-23.52a19.94,19.94,0,0,0-17.63-19.18c-10-1.23-20.45,2.84-28.7,8.21l4.61,4.6c6.15-13.28,15-24.82,23.15-36.9,1.68-2.49-2.24-4.63-4-2.31Z"/><path class="cls-1" d="M1972.43,1156.86c-9.14,4.9-16.59,11.23-20.74,21a3.41,3.41,0,0,0,2.89,5c9.74,1.16,29.19,3.79,27,17.88-2,12.76-16,22.37-26.27,28.26-4.28,2.47-.39,9.16,3.88,6.64,12.62-7.44,29.16-20,29.77-36.21.67-17.55-20.65-22.64-34.33-23.26l3.23,4.24c3-8.82,9.17-14.76,16.85-19.72a2.21,2.21,0,0,0-2.23-3.81Z"/><path class="cls-1" d="M2028.79,1153.54a38.4,38.4,0,0,0-3.75,10.87,20.87,20.87,0,0,1-7.4,12.2c-2.35,2,.15,6.09,3,5.17,3.48-1.13,12.67-4.85,16.18-1.82,2.16,1.86.19,5.8-.86,7.82-5.17,9.93-14.17,15.45-23.32,21.1-3.44,2.11-1.15,7.11,2.67,6.34,6.9-1.41,13.26-7,18-12,4.37-4.65,8.54-10.22,10.37-16.43,1.31-4.44,1-9.63-3.3-12.33-6.12-3.88-15.24-.75-21.35,1.37l3,5.16c3.48-3.36,6.2-7.12,7.4-11.86,1.15-4.53,1.17-9,3.27-13.3,1.26-2.58-2.44-4.82-3.89-2.28Z"/><path class="cls-1" d="M2015.86,1161.27a19.46,19.46,0,0,1,6.94-3.4c2.69-.64,5.25-.12,7.94-.33a2.88,2.88,0,0,0,.76-5.62c-6.08-2.2-13.71.62-18.57,4.34-2.91,2.22-.12,7.24,2.93,5Z"/><path class="cls-1" d="M1966.51,1450.75a70.3,70.3,0,0,1,17.09-9.6c6.34-2.44,13.12-3.18,19.45-5.38a3.44,3.44,0,0,0-.91-6.72c-7.07-.33-14.91,2.77-21.19,5.8a57.38,57.38,0,0,0-17.17,12.37c-1.67,1.76.61,5.14,2.73,3.53Z"/><path class="cls-1" d="M1971.38,1436c-4.15,14.75-8.66,29.55-9.52,44.94a3.87,3.87,0,0,0,3.84,3.84c15.16-.5,41.85,1.94,39.18,23.25-1.86,14.88-15.87,29-29.63,33.7-8.21,2.82-16.91,2.65-24.44-2-3.32-2-7.44,3-4.26,5.52,16.88,13.52,38.61,4.93,52-9.33,11.52-12.26,21.19-34.17,7.1-48.28-10.08-10.08-26.59-11-39.94-10.6l3.84,3.85c0-14.92,3.14-29.22,6.17-43.74.59-2.81-3.54-4-4.33-1.2Z"/><path class="cls-1" d="M1392.68,1053.36c-6.48,6.37-9.46,15.64-11.52,24.27-2.66,11.14-3.87,22.62-5,34-1,10.31-1.68,20.68-3.69,30.86-3.06,15.46-7.63,30.57-11.4,45.86a249,249,0,0,0-5.15,25.78c-1.08,7.88-2.24,16.49-.79,24.38.72,3.94,6.38,2.68,6.63-.9.5-7.24.15-14.42,1.09-21.67a220.75,220.75,0,0,1,4.25-22.24c3.43-14.57,7.82-28.93,10.86-43.59,4.35-21,3.84-42.5,7.34-63.59,1.65-10,3.77-21.9,11.14-29.38,2.41-2.46-1.32-6.2-3.78-3.78Z"/><path class="cls-1" d="M1391,1059c18,1.12,36.11,4.7,53.65,8.83a239.62,239.62,0,0,1,28.3,8.2,68.32,68.32,0,0,1,17.52,9.81c2.58,1.9,5.4-1.69,4.11-4.11-3.14-5.87-12.22-9-18-11.21a192,192,0,0,0-29.1-8.3c-18.47-4-37.58-7.15-56.5-7.72-2.91-.09-2.87,4.32,0,4.5Z"/><path class="cls-1" d="M1479.69,1078.24c11.42,3.54,23.34,5,34.81,8.47,3.69,1.09,4.89-4.22,1.54-5.61-11-4.59-23.43-4.9-34.88-8.2-3.43-1-4.86,4.28-1.47,5.34Z"/><path class="cls-1" d="M1516.35,1089.89c-13.7,30.17-11.84,64.17-16.63,96.29-2.72,18.21-7.85,36-11.81,53.93-2,8.92-3.69,17.89-4.86,27s-2.39,18.92-1.17,28.08c.51,3.85,6,4.1,6.19,0,.45-9.42.24-18.68,1.43-28.08,1.16-9.12,3-18.15,4.93-27.12,3.8-17.34,8.7-34.54,11.16-52.14,4.44-31.77,1.55-65.65,14.57-95.68,1.11-2.56-2.63-4.82-3.81-2.23Z"/><path class="cls-1" d="M1358.75,1238A121.21,121.21,0,0,0,1351,1271c-.33,3.4,5.1,3.44,5.34,0a116.4,116.4,0,0,1,6.8-31.72c1-2.75-3.29-3.85-4.34-1.2Z"/><path class="cls-1" d="M1348,1276.84c21.17,11.15,44,19.05,67,25.27,21.74,5.86,44.7,10.87,67.35,9.81,4-.18,4.05-6.45,0-6.28-22.06,1-44.53-3.78-65.78-9.24-22.65-5.82-45.24-13.34-66.44-23.28-2.48-1.16-4.67,2.41-2.18,3.72Z"/><path class="cls-1" d="M1483.6,1285.41a13.66,13.66,0,0,0-2,12.92c1.1,2.94,5.79,1.76,4.79-1.32a10.28,10.28,0,0,1,1.14-9.33c1.58-2.48-2.22-4.58-3.88-2.27Z"/><path class="cls-1" d="M1395.76,1083.09c-3.62,52.07-23.6,101.34-28.21,153.27a2.92,2.92,0,0,0,2.15,2.82c34.87,5.17,68.68,23.3,104.62,19.54a3.16,3.16,0,0,0,3.09-3.09c-.07-50.84,29.54-98.33,22.22-149.58a3,3,0,0,0-2.11-2.1c-18-5.79-37.31-1.31-55.33-6.64-15.11-4.47-28.92-15.89-45.3-15.17-4.45.2-4.46,7.18,0,6.94,16-.85,30,11.08,45,14.92,17.72,4.53,36.42.28,54,5.76l-2.11-2.1c7.7,50.68-22.73,97.68-22.59,148l3.1-3.09c-35.33,3.79-68.73-14.06-103.07-19l2.14,2.82c4.37-51.88,24.19-101.08,26.68-153.27.14-2.78-4.12-2.75-4.31,0Z"/><path class="cls-1" d="M1425.77,1268.18c1,.56-.19-.58-.64-1.09a5.91,5.91,0,0,0-2.43-1.69c-2.88-1.07-5.77.34-8.16,1.91a3,3,0,0,0-1.49,2.6c.32,5.23,1.73,10.86,6.46,13.83s10.71,1.83,15.59-.22c1.7-.72,2.93-2.23,2.39-4.2-2.48-9-11.32-17.5-21.44-15-3.19.81-2.66,4.94,0,6,3.17,1.22,6.63.88,9.62,2.76s4.31,4.82,5.23,8l1.57-3.86c-2.72,1.18-6.51,2.44-9.37,1s-3.73-5.38-4-8.35l-1.49,2.6c1.64-1.18,2.37-2,3.87-1.15.85.46,1.26,1.3,2.29,1.61,2.83.86,4.67-3.38,2-4.79Z"/><path class="cls-1" d="M1459.09,1078.47l-1.81-1.11,1.49,1.94,0-.35-.38-.9a3,3,0,0,0-1-1,3.62,3.62,0,0,0-1.77-.74,3.7,3.7,0,0,0-3.93,2.24,3.76,3.76,0,0,0,.78,4.1,4.1,4.1,0,0,0,1.65,1,3.7,3.7,0,0,0,2.89-.38l.29-.21-2.5.33,2.07.48a2.91,2.91,0,0,0,2.24-5.31Z"/><path class="cls-1" d="M1452.58,1081.17c2.89,0,2.9-4.5,0-4.5s-2.9,4.5,0,4.5Z"/><path class="cls-1" d="M1449,1082.57c2.77,0,2.78-4.32,0-4.32s-2.78,4.32,0,4.32Z"/><path class="cls-1" d="M1516.8,1081.23c-.89,1.83-1.7,3.66-2.43,5.56-1,2.6,3.43,4.51,4.54,1.92.8-1.88,1.53-3.74,2.17-5.68.83-2.49-3.11-4.2-4.28-1.8Z"/><path class="cls-1" d="M1481,1305.61l-2.06,5.05a2.45,2.45,0,0,0,1.7,3,2.5,2.5,0,0,0,3-1.71l2.06-5a2.45,2.45,0,0,0-1.7-3,2.5,2.5,0,0,0-3,1.7Z"/><path class="cls-1" d="M1485.42,1295.6a27.5,27.5,0,0,0,.7,13.36c.91,2.94,5.62,1.62,4.61-1.28a22.6,22.6,0,0,1-1.15-10.93c.4-2.69-3.64-3.91-4.16-1.15Z"/><path class="cls-1" d="M1643.34,1302.1c14.91,1.14,28.71,7,42.41,12.52,7,2.87,14.11,5.77,21.41,8,5.93,1.77,12.78,3.85,19,3,3-.42,2.71-5.15,0-5.79-6.71-1.59-13.42-2.17-20.06-4.33-7.31-2.37-14.44-5.23-21.58-8-12.88-5-27-11.29-41.17-10.31a2.49,2.49,0,0,0,0,5Z"/><path class="cls-1" d="M1669,1441.66c11.16-1.34,21.2-9.68,29.72-16.42,10.64-8.41,20.72-17.59,32.62-24.25,1.85-1,.21-3.8-1.66-2.83-10.63,5.52-19.71,13.78-28.91,21.34-10.07,8.26-20,15.07-32.06,20-1,.42-1,2.28.29,2.12Z"/><path class="cls-1" d="M1650.1,1299.07c-4.24,9.39-4,19.87-3,29.92,1.22,11.59,3.73,23,5.65,34.47,2.19,13.06,2.6,26.37,3.9,39.54,1.5,15.07,2.93,30.11,3,45.27a1.64,1.64,0,0,0,3.28,0c-.06-14.56-1.38-29-2.83-43.51-1.24-12.44-1.57-25.09-3.49-37.45-1.78-11.49-4.51-22.82-6.13-34.34-1.51-10.78-2.61-22.74,1.6-33.07.46-1.12-1.47-1.94-2-.83Z"/><path class="cls-1" d="M1645.14,1301.42c-24.71,21.2-7.44,51.42-3.1,77.41,2.89,17.25,2.5,34.88,4.54,52.23.92,7.86,2,16.13,4.85,23.57,2.21,5.81,7,1.83,10.61.06,1.5-.73.42-3.4-1.16-2.74-.88.37-2,1.25-2.89,1.54-2.13.7-2.65,1.22-4.06-1.11-1.64-2.71-2-7.47-2.64-10.5a195.17,195.17,0,0,1-2.77-22.48c-1.1-14.2-1.28-28.59-3.84-42.63-4.48-24.6-21-53.45,2-73.83,1-.92-.48-2.42-1.53-1.52Z"/><path class="cls-1" d="M1664.25,1338.06c.8,25.62,44,12.52,58.54,11.39,4.72-.36,4.76-7.77,0-7.4-10.18.79-20,3.8-30.18,4.8-7.95.79-22.6,2.09-24-8.79-.35-2.65-4.4-2.86-4.31,0Z"/><path class="cls-1" d="M1675.6,1384.49c.62,3.48,1.84,6.79,2.66,10.22a1.48,1.48,0,0,0,1.8,1,179,179,0,0,0,22.62-9.11l-2.44-.64c3.8,6,6.46,3.39,12.3,2.65,2.34-.29,2.43-4,0-3.75-3.72.36-6.69,3.13-9.22-.7a1.83,1.83,0,0,0-2.44-.64,194.88,194.88,0,0,1-21.6,9.38l1.8,1c-1-3.41-2.48-6.6-3.36-10-.36-1.39-2.37-.79-2.12.59Z"/><path class="cls-1" d="M1728.54,1319.82c11.06-2.54,20.32-10.18,28.93-17.17,4.69-3.82,9.27-7.81,14.12-11.44,3.7-2.77,8.07-4.19,11.76-6.78a3.22,3.22,0,0,0-1.61-5.94c-4.34-.16-8.24,3.41-11.5,5.86-4.42,3.31-8.57,7-12.73,10.61-8.92,7.79-18.52,17-30.21,20.34-2.92.82-1.7,5.19,1.24,4.52Z"/><path class="cls-1" d="M1735.91,1408.37c5.29-1.12,11.46.81,16.57,2.05,7.65,1.87,15.2,4.18,22.66,6.73s14.71,5.26,21.88,8.33c4.07,1.75,8.54,3.52,12.1,6.25,1.54,1.18,3.07-1.24,2-2.54-3-3.48-8.62-5.23-12.69-7-7.49-3.2-15.17-5.93-22.93-8.42a214.31,214.31,0,0,0-24.12-6.56c-5-1-10.93-2.36-16-1.09-1.44.35-.83,2.52.61,2.21Z"/><path class="cls-1" d="M1783.06,1291.93c-.33,22.66,9.52,44.93,16.65,66,6.82,20.13,15.44,43.07,8.78,64.29-.5,1.6,2,2.71,2.74,1.16,4-8.32,3.46-18.22,2.17-27.12-1.71-11.8-5.33-23.27-9.11-34.55-7.5-22.35-18.42-45.84-18.74-69.8a1.25,1.25,0,0,0-2.49,0Z"/><path class="cls-1" d="M1778,1291.93c-1.4,46.25,15.07,91.15,22.68,136.28.36,2.12,3.53,1.2,3.21-.89-3.43-22.33-9.26-44.18-14.17-66.21a380.52,380.52,0,0,1-9.28-69.18,1.22,1.22,0,0,0-2.44,0Z"/><path class="cls-1" d="M1743.3,1333.14c8.84,1.12,18.92,1.11,27.16-2.7,2.66-1.22,1.44-6.06-1.53-5.68-8.69,1.12-16.75,3.11-25.63,2.85-3.66-.11-3.43,5.1,0,5.53Z"/><path class="cls-1" d="M1748.42,1358.21a125.29,125.29,0,0,0,23.07.7,2.91,2.91,0,0,0,0-5.81,125.27,125.27,0,0,0-23.07.7,2.21,2.21,0,0,0,0,4.41Z"/><path class="cls-1" d="M1756.44,1393.06a43.84,43.84,0,0,1,17.61-2.21c1.69.08,2.12-2.71.41-3a31.15,31.15,0,0,0-19,3,1.23,1.23,0,0,0,.94,2.23Z"/><path class="cls-1" d="M1727,1320.67c12.3,28.44,6.82,61.68,6.74,91.72a1.88,1.88,0,0,0,3.75,0c.08-30.56,4.62-64.16-8.63-92.81-.59-1.27-2.4-.17-1.86,1.09Z"/><path class="cls-1" d="M1676.32,1370c14,2.33,27.3-7.42,40.93-2.27,1.89.72,2.7-2.31.83-3-14-5.37-27.19,4.42-41.42,2.81-1.41-.16-1.74,2.25-.34,2.49Z"/><path class="cls-1" d="M1682.56,1446.49c15.23-13,30.92-25.35,43.64-40.94,1-1.19-.71-2.89-1.69-1.7-12.71,15.45-28.66,27.8-43.5,41.08-1.07,1,.49,2.47,1.55,1.56Z"/><path class="cls-1" d="M1717.77,1756.13c-3.64,8.35-13,14.29-20.37,19-8.77,5.67-17.91,10.66-27,15.78a3.91,3.91,0,0,0-.78,6.08c15.84,15.38,42.29,16.26,63,13.49,4.74-.63,5.12-7.6,0-7.69-19.5-.33-42,3.66-57.51-11.28l-.79,6.09c10.09-5.76,20.42-11.24,29.88-18,7.74-5.55,16-11.8,19.06-21.18,1-3.17-4.11-5.45-5.49-2.31Z"/><path class="cls-1" d="M1726.51,1746.6c10.23-19.28,22.3-39.79,41.82-50.92,18.35-10.46,39.43-8.86,58.2-.54,34,15.07,69.53,50.36,65.24,90.36-2.84,26.56-19.73,47.36-44.81,56.22-22.7,8-48.58,7.54-71.43.32-10.38-3.28-21-8.19-28.57-16.2-6-6.29-8.61-14-6.91-22.33.74-3.59-4.69-6.5-6.34-2.68-9.19,21.25,11.11,37.85,28.69,45.45a123.78,123.78,0,0,0,79.48,5.62c27.68-7.46,49.89-27.2,56.16-55.78a74.78,74.78,0,0,0-8.67-55.18c-11.25-19.35-28.59-35.5-47.91-46.63-18.49-10.65-40.25-17.14-61.38-11.11-22.64,6.47-38.56,25.24-49.85,45a169.48,169.48,0,0,0-7.84,16c-1.22,2.74,2.65,5.18,4.12,2.41Z"/><path class="cls-1" d="M1769.39,1754.83l-4.09.05a2.77,2.77,0,0,0,0,5.53l4.09,0a2.84,2.84,0,0,0,2.81-2.81,2.87,2.87,0,0,0-2.81-2.82Z"/><path class="cls-1" d="M1767,1756.28c-7.28,13.22-8.65,30,3.89,40.57,1.6,1.34,4.64,1.57,5.67-.73,3.09-6.83,8.09-12.56,11.32-19.31l-6.84-.9c1.89,6.51,4.81,12.64,5.8,19.39.49,3.39,5.55,3.6,7.06.93,3.48-6.19,5.58-13,7.27-19.84,1.83-7.47,3.79-15.15,4.37-22.83.33-4.26-5.56-4.34-6.9-.93-5.08,12.88-4.63,27.3-11.41,39.7l7.06.92c-1.07-6.75-4.06-12.84-6-19.33-.86-2.83-5.42-4-6.85-.89-3.15,6.79-8.07,12.58-11.08,19.44l5.67-.73c-10.13-8.3-9.33-21.71-4.31-32.72,1.43-3.12-3-5.87-4.69-2.74Z"/><path class="cls-1" d="M1816,1765.82c.76,10.56,4.2,20.55,8.4,30.19,1.33,3.06,6.25,2.08,7-.91,1.89-7.9,6-15.07,7.94-23l-7.36,1c3.11,7,9.28,12.13,12.37,19.21.93,2.12,3.86,2.4,5.66,1.48,17.09-8.79,25.87-31,21.36-49.46-1.09-4.46-8.11-3.53-8,1.08.18,8.2.52,15.89-2.34,23.75a31.75,31.75,0,0,1-15.18,17.49l5.65,1.48c-3.16-7-9.37-12.11-12.55-19.1-1.45-3.18-6.63-2.24-7.37,1-1.83,7.91-6.16,15.1-7.52,23.1l7-.91a122.39,122.39,0,0,1-10.29-27c-.63-2.57-4.89-2.09-4.69.64Z"/><path class="cls-1" d="M1799.76,1812.1c.85,1.94.13,4.34.57,6.39a10.19,10.19,0,0,0,3.24,5.35,3.64,3.64,0,0,0,4.27.55c4.92-2.32,8.05-6.72,10.94-11.16l-6.43.82c5.28,4.18,11.51,9,18.51,9.22a4.57,4.57,0,0,0,4-2.31c2.9-6,11.73-11.35,11.74-18.38,0-2.17-2.41-4.49-4.69-3.57-6.38,2.59-12.38,11.11-15.09,17.25l4-2.3c-4.8,0-9.74-3.71-13.55-6.33a4.13,4.13,0,0,0-5.6,1.46c-2,3.49-3.88,7.14-7.43,9.22l4.27.55c-3-2.46-2.16-6.32-4.18-9.45-1.9-3-6-.4-4.61,2.69Z"/><path class="cls-1" d="M1769.39,1762.77a7.39,7.39,0,0,1-6.12-3.09c-2.06-2.54-6.57.89-4.56,3.52a13.35,13.35,0,0,0,10.68,5.66c3.91.11,3.93-6.1,0-6.09Z"/><path class="cls-1" d="M1764.07,1751.58c11.83,5.29,26,7.83,38.84,5.06,3.5-.76,2.75-6.43-.84-6.27-12.5.58-24.07.89-36.12-3.24-2.58-.89-4.42,3.32-1.88,4.45Z"/><path class="cls-1" d="M1822.49,1752.15a148.94,148.94,0,0,0,27.83-3.52c7.66-1.8,17.13-4.16,23.25-9.35,2.19-1.86-.14-5.8-2.83-4.86-3.46,1.22-6.61,3.19-10,4.52a94.88,94.88,0,0,1-12,3.71,192.77,192.77,0,0,1-26.18,4.16c-3.35.33-3.49,5.49,0,5.34Z"/><path class="cls-1" d="M1840.43,1753.56a44.33,44.33,0,0,0-.23,4.61c0,.77.13,1.52.22,2.29,0,.37-.09-.79-.05-.34a3.72,3.72,0,0,0,.9,2.41,3.66,3.66,0,0,0,5,.89,9.81,9.81,0,0,0,3.38-5.05,2.72,2.72,0,0,0-4.55-2.65,25.33,25.33,0,0,0-1.59,2.25c-.22.35.32-.35.07-.09l-.23.28c-.12.12-.64.56-.18.23s.16-.12.06-.07c-.3.17.79-.26.41-.17a2.68,2.68,0,0,1,1.29,0c-.07,0,.82.38.53.22a2.53,2.53,0,0,1,.86.86l-.09-.16c-.18-.32.2.48.18.44a3.84,3.84,0,0,0-.38-.88c-.31-.38.16.67,0,.12,0-.2-.11-.4-.15-.6s-.1-.44-.13-.67,0-.3-.08-.45c-.06-.37,0,0,0,.17a9.27,9.27,0,0,1-.17-1.67c-.06-.66-.1-1.32-.14-2a2.49,2.49,0,0,0-5,0Z"/><path class="cls-1" d="M1845.15,1751.71c-1.57,2-4.76,1.81-5.81,4.59-1.33,3.51,2,5.35,4.9,5.78l-2.56-4.51c-.52,1.49-1.54,2.25-1.53,4,0,2,1.25,3.32,2.43,4.73v-5.42c-3.82,4.34-5.5,9.65-6.87,15.17l7.64,2.11c1-5.17,2.27-10.18,2.55-15.45l-5.17,3.94c1.27.22,2.55.47,3.81.77,1.51.37,3,1.56,1.28,0l-1.21-2.93v.08l2.05-3.58c2.2-1.06.49-.45-.87-.55-1.86-.13-3.7-.37-5.55-.58-4.69-.56-5,5.68-2.13,7.86,5.54,4.22,13.92.52,12.33-6.87-.7-3.23-4.89-3.19-6.51-.86-.29,1.08-.81,1.22-1.56.44l-2.13,7.86c3.21.33,7.54,1.4,10.61-.14a4.16,4.16,0,0,0,2.05-3.58c.21-4.7-6.72-5.26-10-5.77-2.66-.42-5.07,1.06-5.17,3.94-.17,4.53-1.28,8.88-2,13.34-.82,4.93,6.47,7.17,7.64,2.11,1-4.12,1.88-8.53,4.66-11.86a4,4,0,0,0,0-5.42c.17.19-1.31,3.23-.12,1a11.56,11.56,0,0,0,.86-2.3c.7-2.47-1.21-4.44-3.54-4.65l.41,1,.35,2.72c-.56,1.7.69-.34,1.36-1.08a10.59,10.59,0,0,0,1.94-2.63c1.1-2.46-2.14-5.74-4.12-3.18Z"/><path class="cls-1" d="M1849.2,1747.59c-2.82,2.4-5.84,5.65-5.75,9.62s3.73,7.21,7.64,7.57c2.6.24,4.06-3.52,2.15-5.2-1-.89-3.23-1.65-3.44-3.09-.24-1.72,2.18-4,3.18-5.12,2.37-2.55-1.18-6-3.78-3.78Z"/><path class="cls-1" d="M1845,1740.12c-4.48,6.18-7.89,15.76-4.73,23.17,1.34,3.15,5.5,1.09,5.76-1.56.32-3.17-.62-6.31-.29-9.53a24.7,24.7,0,0,1,3.31-9.71c1.52-2.68-2.31-4.76-4-2.37Z"/><path class="cls-1" d="M1849.11,1748.32c-1.93,4.19-4.21,8.5-5.27,13a3.83,3.83,0,0,0,1.7,4.18c2.9,1.72,6.3,2.87,9.46,1.09,2.69-1.51,4.54-4.39,6.74-6.47,3.38-3.17-1.52-7.72-5-5-1.69,1.35-3,3-4.56,4.45-1.14,1-1.53.37-2.93-.49l1.83,3.19a54.46,54.46,0,0,1,2.19-12.22c.66-2.43-3.08-4.21-4.19-1.77Z"/><path class="cls-1" d="M1860.08,1746.49c-4-1.44-8.62-1.22-11.2,2.63s-2.51,9.43-1,13.48a3.3,3.3,0,0,0,6.45-.87c.14-2.72-.72-6,.18-8.6.52-1.55,2-1.21,3.89-.67,3.87,1.1,5.35-4.64,1.64-6Z"/><path class="cls-1" d="M1779.43,1757c-1,2.76-1.47,5.3-.23,8.08l-.4-1.49a4.75,4.75,0,0,0,2.85,4.22,6.1,6.1,0,0,0,5.57.52c1.73-.74,1.87-3.48.6-4.64a11.89,11.89,0,0,0-2.9-1.48c-.19-.13-.2-.12,0,0a2.79,2.79,0,0,1-.45-.46,5.8,5.8,0,0,0-1.91-1l1.76,1.36a4.9,4.9,0,0,1-.44-3.88,2.3,2.3,0,0,0-4.43-1.22Z"/><path class="cls-1" d="M1788.32,1760.2a4,4,0,0,0,3.66.57,3.19,3.19,0,0,0,1.49-4.53,12.52,12.52,0,0,0-.78-1c.45.63-.16-.3-.3-.45a5.22,5.22,0,0,0-.91-.77c-.47-.3-1-.51-1.49-.81a4.79,4.79,0,0,1-.71-.46c-.51-.41.49.6-.18-.31-2.1-2.87-6.68-1.24-5.87,2.48.75,3.4,2.61,6.95,6.52,7.13a7.84,7.84,0,0,0,3-.49,16.28,16.28,0,0,0,1.74-.71c.68-.31-.71.1-.55.1,3.81,0,4.31-5.26.87-6.45-1.52-.52-3.16,0-4.63.43-.73.21.77,0-.18,0,.12,0,.84.1.33,0,.33,0,.64.33.15,0s.54.36.08.09c-.15-.09-.46-.5-.19-.15a6.74,6.74,0,0,1-.9-1.67l-4.72,3.62a15.91,15.91,0,0,1,2.14,2,5.12,5.12,0,0,0,1.45,1.21c.9.4,1.07.47.49.19.52.34.29.07-.69-.8l-.31-2.4v0l2.17-2.18c.25-.07,1.42,0,.65-.12-3.16-.63-5.33,3.66-2.28,5.4Z"/></svg>